<svg version="1.1" xmlns="http://www.w3.org/2000/svg" viewBox="0 0 1660 485" width="1660" height="485">
  <!-- svg-source:excalidraw -->
  
  <defs>
    <style class="style-fonts">
      @font-face {
        font-family: "Virgil";
        src: url("https://excalidraw.com/Virgil.woff2");
      }
      @font-face {
        font-family: "Cascadia";
        src: url("https://excalidraw.com/Cascadia.woff2");
      }
      @font-face {
        font-family: "Assistant";
        src: url("https://excalidraw.com/Assistant-Regular.woff2");
      }
    </style>
    
  </defs>
  <g stroke-linecap="round" transform="translate(350 70) rotate(0 150 150)"><path d="M32 0 C96.32 0, 160.65 0, 268 0 C289.33 0, 300 10.67, 300 32 C300 111.32, 300 190.64, 300 268 C300 289.33, 289.33 300, 268 300 C211.7 300, 155.4 300, 32 300 C10.67 300, 0 289.33, 0 268 C0 219.25, 0 170.49, 0 32 C0 10.67, 10.67 0, 32 0" stroke="none" stroke-width="0" fill="#1e1e1e"></path><path d="M32 0 C85.04 0, 138.09 0, 268 0 M32 0 C101.43 0, 170.87 0, 268 0 M268 0 C289.33 0, 300 10.67, 300 32 M268 0 C289.33 0, 300 10.67, 300 32 M300 32 C300 114.33, 300 196.65, 300 268 M300 32 C300 121.92, 300 211.85, 300 268 M300 268 C300 289.33, 289.33 300, 268 300 M300 268 C300 289.33, 289.33 300, 268 300 M268 300 C217.8 300, 167.61 300, 32 300 M268 300 C183.56 300, 99.13 300, 32 300 M32 300 C10.67 300, 0 289.33, 0 268 M32 300 C10.67 300, 0 289.33, 0 268 M0 268 C0 193.57, 0 119.15, 0 32 M0 268 C0 208.7, 0 149.41, 0 32 M0 32 C0 10.67, 10.67 0, 32 0 M0 32 C0 10.67, 10.67 0, 32 0" stroke="#1e1e1e" stroke-width="1" fill="none"></path></g><g transform="translate(410.9540252685547 175) rotate(0 89.04597473144531 45)"><text x="89.04597473144531" y="0" font-family="Virgil, Segoe UI Emoji" font-size="36px" fill="#ffffff" text-anchor="middle" style="white-space: pre;" direction="ltr" dominant-baseline="text-before-edge">Animation </text><text x="89.04597473144531" y="45" font-family="Virgil, Segoe UI Emoji" font-size="36px" fill="#ffffff" text-anchor="middle" style="white-space: pre;" direction="ltr" dominant-baseline="text-before-edge">Database</text></g><g stroke-linecap="round" transform="translate(1350 70) rotate(0 150 150)"><path d="M32 0 C117.43 0, 202.85 0, 268 0 C289.33 0, 300 10.67, 300 32 C300 99.32, 300 166.64, 300 268 C300 289.33, 289.33 300, 268 300 C201.36 300, 134.73 300, 32 300 C10.67 300, 0 289.33, 0 268 C0 181.73, 0 95.47, 0 32 C0 10.67, 10.67 0, 32 0" stroke="none" stroke-width="0" fill="#1e1e1e"></path><path d="M32 0 C100.88 0, 169.76 0, 268 0 M32 0 C110.48 0, 188.96 0, 268 0 M268 0 C289.33 0, 300 10.67, 300 32 M268 0 C289.33 0, 300 10.67, 300 32 M300 32 C300 90.69, 300 149.38, 300 268 M300 32 C300 101.82, 300 171.64, 300 268 M300 268 C300 289.33, 289.33 300, 268 300 M300 268 C300 289.33, 289.33 300, 268 300 M268 300 C187.48 300, 106.97 300, 32 300 M268 300 C209.13 300, 150.26 300, 32 300 M32 300 C10.67 300, 0 289.33, 0 268 M32 300 C10.67 300, 0 289.33, 0 268 M0 268 C0 213.49, 0 158.99, 0 32 M0 268 C0 189.89, 0 111.78, 0 32 M0 32 C0 10.67, 10.67 0, 32 0 M0 32 C0 10.67, 10.67 0, 32 0" stroke="#1e1e1e" stroke-width="1" fill="none"></path></g><g transform="translate(1400.1720352172852 197.5) rotate(0 99.82796478271484 22.5)"><text x="99.82796478271484" y="0" font-family="Virgil, Segoe UI Emoji" font-size="36px" fill="#ffffff" text-anchor="middle" style="white-space: pre;" direction="ltr" dominant-baseline="text-before-edge">Environment</text></g><g stroke-linecap="round"><g transform="translate(1350 230) rotate(0 -100 -70)"><path d="M0 0 C-33.33 -23.33, -166.67 -116.67, -200 -140 M0 0 C-33.33 -23.33, -166.67 -116.67, -200 -140" stroke="#1e1e1e" stroke-width="2" fill="none"></path></g><g transform="translate(1350 230) rotate(0 -100 -70)"><path d="M-200 -140 L-185.23 -137.4 L-192.5 -127.01 L-200 -140" stroke="none" stroke-width="0" fill="#1e1e1e" fill-rule="evenodd"></path><path d="M-200 -140 C-194.98 -139.12, -189.97 -138.23, -185.23 -137.4 M-200 -140 C-195.52 -139.21, -191.04 -138.42, -185.23 -137.4 M-185.23 -137.4 C-187.78 -133.75, -190.33 -130.11, -192.5 -127.01 M-185.23 -137.4 C-186.89 -135.02, -188.56 -132.63, -192.5 -127.01 M-192.5 -127.01 C-194.65 -130.73, -196.8 -134.45, -200 -140 M-192.5 -127.01 C-194.43 -130.35, -196.36 -133.69, -200 -140 M-200 -140 C-200 -140, -200 -140, -200 -140 M-200 -140 C-200 -140, -200 -140, -200 -140" stroke="#1e1e1e" stroke-width="2" fill="none"></path></g></g><mask></mask><g stroke-linecap="round" transform="translate(1049 30) rotate(0 50 50)"><path d="M25 0 C40.68 0, 56.37 0, 75 0 C91.67 0, 100 8.33, 100 25 C100 42.34, 100 59.68, 100 75 C100 91.67, 91.67 100, 75 100 C64.45 100, 53.91 100, 25 100 C8.33 100, 0 91.67, 0 75 C0 60.38, 0 45.76, 0 25 C0 8.33, 8.33 0, 25 0" stroke="none" stroke-width="0" fill="#1e1e1e"></path><path d="M25 0 C41.12 0, 57.24 0, 75 0 M25 0 C35.38 0, 45.76 0, 75 0 M75 0 C91.67 0, 100 8.33, 100 25 M75 0 C91.67 0, 100 8.33, 100 25 M100 25 C100 42.46, 100 59.91, 100 75 M100 25 C100 44.3, 100 63.61, 100 75 M100 75 C100 91.67, 91.67 100, 75 100 M100 75 C100 91.67, 91.67 100, 75 100 M75 100 C64.95 100, 54.89 100, 25 100 M75 100 C61.42 100, 47.84 100, 25 100 M25 100 C8.33 100, 0 91.67, 0 75 M25 100 C8.33 100, 0 91.67, 0 75 M0 75 C0 57.64, 0 40.27, 0 25 M0 75 C0 60.41, 0 45.81, 0 25 M0 25 C0 8.33, 8.33 0, 25 0 M0 25 C0 8.33, 8.33 0, 25 0" stroke="#ffffff" stroke-width="1" fill="none"></path></g><g transform="translate(1056.5680236816406 60) rotate(0 42.431976318359375 20)"><text x="42.431976318359375" y="0" font-family="Virgil, Segoe UI Emoji" font-size="16px" fill="#ffffff" text-anchor="middle" style="white-space: pre;" direction="ltr" dominant-baseline="text-before-edge">character </text><text x="42.431976318359375" y="20" font-family="Virgil, Segoe UI Emoji" font-size="16px" fill="#ffffff" text-anchor="middle" style="white-space: pre;" direction="ltr" dominant-baseline="text-before-edge">velocity</text></g><g stroke-linecap="round" transform="translate(1049 130) rotate(0 50 50)"><path d="M25 0 C41.47 0, 57.94 0, 75 0 C91.67 0, 100 8.33, 100 25 C100 41.31, 100 57.61, 100 75 C100 91.67, 91.67 100, 75 100 C58.53 100, 42.06 100, 25 100 C8.33 100, 0 91.67, 0 75 C0 64.58, 0 54.17, 0 25 C0 8.33, 8.33 0, 25 0" stroke="none" stroke-width="0" fill="#1e1e1e"></path><path d="M25 0 C39.71 0, 54.42 0, 75 0 M25 0 C41.2 0, 57.39 0, 75 0 M75 0 C91.67 0, 100 8.33, 100 25 M75 0 C91.67 0, 100 8.33, 100 25 M100 25 C100 44.05, 100 63.1, 100 75 M100 25 C100 35.16, 100 45.33, 100 75 M100 75 C100 91.67, 91.67 100, 75 100 M100 75 C100 91.67, 91.67 100, 75 100 M75 100 C57.11 100, 39.22 100, 25 100 M75 100 C55.17 100, 35.33 100, 25 100 M25 100 C8.33 100, 0 91.67, 0 75 M25 100 C8.33 100, 0 91.67, 0 75 M0 75 C0 62.44, 0 49.87, 0 25 M0 75 C0 56.22, 0 37.43, 0 25 M0 25 C0 8.33, 8.33 0, 25 0 M0 25 C0 8.33, 8.33 0, 25 0" stroke="#ffffff" stroke-width="1" fill="none"></path></g><g transform="translate(1056.5680236816406 160) rotate(0 42.431976318359375 20)"><text x="42.431976318359375" y="0" font-family="Virgil, Segoe UI Emoji" font-size="16px" fill="#ffffff" text-anchor="middle" style="white-space: pre;" direction="ltr" dominant-baseline="text-before-edge">character </text><text x="42.431976318359375" y="20" font-family="Virgil, Segoe UI Emoji" font-size="16px" fill="#ffffff" text-anchor="middle" style="white-space: pre;" direction="ltr" dominant-baseline="text-before-edge">pose</text></g><g stroke-linecap="round" transform="translate(1049 230) rotate(0 50 50)"><path d="M25 0 C35.18 0, 45.36 0, 75 0 C91.67 0, 100 8.33, 100 25 C100 43.71, 100 62.41, 100 75 C100 91.67, 91.67 100, 75 100 C55.8 100, 36.6 100, 25 100 C8.33 100, 0 91.67, 0 75 C0 58.55, 0 42.1, 0 25 C0 8.33, 8.33 0, 25 0" stroke="none" stroke-width="0" fill="#1e1e1e"></path><path d="M25 0 C41.63 0, 58.25 0, 75 0 M25 0 C36.22 0, 47.44 0, 75 0 M75 0 C91.67 0, 100 8.33, 100 25 M75 0 C91.67 0, 100 8.33, 100 25 M100 25 C100 39.79, 100 54.59, 100 75 M100 25 C100 42.36, 100 59.71, 100 75 M100 75 C100 91.67, 91.67 100, 75 100 M100 75 C100 91.67, 91.67 100, 75 100 M75 100 C62.53 100, 50.05 100, 25 100 M75 100 C57 100, 39.01 100, 25 100 M25 100 C8.33 100, 0 91.67, 0 75 M25 100 C8.33 100, 0 91.67, 0 75 M0 75 C0 58.45, 0 41.9, 0 25 M0 75 C0 56.24, 0 37.48, 0 25 M0 25 C0 8.33, 8.33 0, 25 0 M0 25 C0 8.33, 8.33 0, 25 0" stroke="#ffffff" stroke-width="1" fill="none"></path></g><g transform="translate(1067.608024597168 260) rotate(0 31.39197540283203 20)"><text x="31.39197540283203" y="0" font-family="Virgil, Segoe UI Emoji" font-size="16px" fill="#ffffff" text-anchor="middle" style="white-space: pre;" direction="ltr" dominant-baseline="text-before-edge">desired </text><text x="31.39197540283203" y="20" font-family="Virgil, Segoe UI Emoji" font-size="16px" fill="#ffffff" text-anchor="middle" style="white-space: pre;" direction="ltr" dominant-baseline="text-before-edge">pose</text></g><g stroke-linecap="round"><g transform="translate(1350 230) rotate(0 -100 -20)"><path d="M0 0 C-33.33 -6.67, -166.67 -33.33, -200 -40 M0 0 C-33.33 -6.67, -166.67 -33.33, -200 -40" stroke="#1e1e1e" stroke-width="2" fill="none"></path></g><g transform="translate(1350 230) rotate(0 -100 -20)"><path d="M-200 -40 L-185.43 -43.55 L-187.91 -31.12 L-200 -40" stroke="none" stroke-width="0" fill="#1e1e1e" fill-rule="evenodd"></path><path d="M-200 -40 C-195.58 -41.08, -191.16 -42.15, -185.43 -43.55 M-200 -40 C-194.88 -41.25, -189.77 -42.49, -185.43 -43.55 M-185.43 -43.55 C-186 -40.7, -186.57 -37.85, -187.91 -31.12 M-185.43 -43.55 C-186.14 -39.99, -186.85 -36.43, -187.91 -31.12 M-187.91 -31.12 C-191.02 -33.4, -194.13 -35.69, -200 -40 M-187.91 -31.12 C-192.04 -34.15, -196.16 -37.18, -200 -40 M-200 -40 C-200 -40, -200 -40, -200 -40 M-200 -40 C-200 -40, -200 -40, -200 -40" stroke="#1e1e1e" stroke-width="2" fill="none"></path></g></g><mask></mask><g stroke-linecap="round"><g transform="translate(1350 230) rotate(0 -100 30)"><path d="M0 0 C-33.33 10, -166.67 50, -200 60 M0 0 C-33.33 10, -166.67 50, -200 60" stroke="#1e1e1e" stroke-width="2" fill="none"></path></g><g transform="translate(1350 230) rotate(0 -100 30)"><path d="M-200 60 L-188.8 50.02 L-185.16 62.17 L-200 60" stroke="none" stroke-width="0" fill="#1e1e1e" fill-rule="evenodd"></path><path d="M-200 60 C-197.68 57.93, -195.35 55.86, -188.8 50.02 M-200 60 C-196.02 56.45, -192.04 52.91, -188.8 50.02 M-188.8 50.02 C-187.48 54.43, -186.15 58.84, -185.16 62.17 M-188.8 50.02 C-187.51 54.32, -186.22 58.62, -185.16 62.17 M-185.16 62.17 C-189.3 61.56, -193.45 60.96, -200 60 M-185.16 62.17 C-190.1 61.44, -195.04 60.72, -200 60 M-200 60 C-200 60, -200 60, -200 60 M-200 60 C-200 60, -200 60, -200 60" stroke="#1e1e1e" stroke-width="2" fill="none"></path></g></g><mask></mask><g stroke-linecap="round" transform="translate(1049 330) rotate(0 50 50)"><path d="M25 0 C39.26 0, 53.53 0, 75 0 C91.67 0, 100 8.33, 100 25 C100 39.12, 100 53.24, 100 75 C100 91.67, 91.67 100, 75 100 C56.72 100, 38.45 100, 25 100 C8.33 100, 0 91.67, 0 75 C0 61.68, 0 48.37, 0 25 C0 8.33, 8.33 0, 25 0" stroke="none" stroke-width="0" fill="#1e1e1e"></path><path d="M25 0 C40.92 0, 56.84 0, 75 0 M25 0 C42.12 0, 59.23 0, 75 0 M75 0 C91.67 0, 100 8.33, 100 25 M75 0 C91.67 0, 100 8.33, 100 25 M100 25 C100 36.99, 100 48.97, 100 75 M100 25 C100 36.49, 100 47.99, 100 75 M100 75 C100 91.67, 91.67 100, 75 100 M100 75 C100 91.67, 91.67 100, 75 100 M75 100 C55.18 100, 35.35 100, 25 100 M75 100 C58.54 100, 42.07 100, 25 100 M25 100 C8.33 100, 0 91.67, 0 75 M25 100 C8.33 100, 0 91.67, 0 75 M0 75 C0 64.63, 0 54.27, 0 25 M0 75 C0 63.75, 0 52.51, 0 25 M0 25 C0 8.33, 8.33 0, 25 0 M0 25 C0 8.33, 8.33 0, 25 0" stroke="#ffffff" stroke-width="1" fill="none"></path></g><g transform="translate(1064.8480224609375 370) rotate(0 34.1519775390625 10)"><text x="34.1519775390625" y="0" font-family="Virgil, Segoe UI Emoji" font-size="16px" fill="#ffffff" text-anchor="middle" style="white-space: pre;" direction="ltr" dominant-baseline="text-before-edge">RUN tag</text></g><g stroke-linecap="round"><g transform="translate(1350 230) rotate(0 -100 80)"><path d="M0 0 C-33.33 26.67, -166.67 133.33, -200 160 M0 0 C-33.33 26.67, -166.67 133.33, -200 160" stroke="#1e1e1e" stroke-width="2" fill="none"></path></g><g transform="translate(1350 230) rotate(0 -100 80)"><path d="M-200 160 L-193.34 146.56 L-185.42 156.46 L-200 160" stroke="none" stroke-width="0" fill="#1e1e1e" fill-rule="evenodd"></path><path d="M-200 160 C-198.21 156.38, -196.41 152.75, -193.34 146.56 M-200 160 C-197.68 155.31, -195.36 150.62, -193.34 146.56 M-193.34 146.56 C-190.33 150.33, -187.31 154.1, -185.42 156.46 M-193.34 146.56 C-191.73 148.57, -190.12 150.58, -185.42 156.46 M-185.42 156.46 C-189.91 157.55, -194.39 158.64, -200 160 M-185.42 156.46 C-190.96 157.8, -196.5 159.15, -200 160 M-200 160 C-200 160, -200 160, -200 160 M-200 160 C-200 160, -200 160, -200 160" stroke="#1e1e1e" stroke-width="2" fill="none"></path></g></g><mask></mask><g mask="url(#mask-6KDE-Da2yYbnuui9HUE3n)" stroke-linecap="round"><g transform="translate(350 230) rotate(0 60 100)"><path d="M0 0 C-6.67 16.67, -36.67 70, -40 100 C-43.33 130, -36.67 163.33, -20 180 C-3.33 196.67, 30 206.67, 60 200 C90 193.33, 143.33 150, 160 140 M0 0 C-6.67 16.67, -36.67 70, -40 100 C-43.33 130, -36.67 163.33, -20 180 C-3.33 196.67, 30 206.67, 60 200 C90 193.33, 143.33 150, 160 140" stroke="#1e1e1e" stroke-width="2" fill="none"></path></g><g transform="translate(350 230) rotate(0 60 100)"><path d="M160 140 L152.43 152.95 L145.21 142.52 L160 140" stroke="none" stroke-width="0" fill="#1e1e1e" fill-rule="evenodd"></path><path d="M160 140 C158.3 142.91, 156.6 145.81, 152.43 152.95 M160 140 C157.68 143.96, 155.37 147.92, 152.43 152.95 M152.43 152.95 C150.03 149.48, 147.63 146.02, 145.21 142.52 M152.43 152.95 C150.29 149.87, 148.16 146.78, 145.21 142.52 M145.21 142.52 C148.36 141.99, 151.5 141.45, 160 140 M145.21 142.52 C150.5 141.62, 155.79 140.72, 160 140 M160 140 C160 140, 160 140, 160 140 M160 140 C160 140, 160 140, 160 140" stroke="#1e1e1e" stroke-width="2" fill="none"></path></g></g><mask id="mask-6KDE-Da2yYbnuui9HUE3n"><rect x="0" y="0" fill="#fff" width="650" height="530"></rect><rect x="282.2200469970703" y="397.5" fill="#000" width="95.55990600585938" height="25" opacity="1"></rect></mask><g transform="translate(282.2200469970703 397.5) rotate(0 127.36328633626295 -66.45589632323231)"><text x="47.77995300292969" y="0" font-family="Virgil, Segoe UI Emoji" font-size="20px" fill="#1e1e1e" text-anchor="middle" style="white-space: pre;" direction="ltr" dominant-baseline="text-before-edge">next pose</text></g><g stroke-linecap="round" transform="translate(50 50) rotate(0 50 50)"><path d="M100 50 C100 52.18, 99.86 54.37, 99.57 56.53 C99.29 58.68, 98.86 60.84, 98.3 62.94 C97.73 65.04, 97.03 67.12, 96.19 69.13 C95.36 71.14, 94.39 73.12, 93.3 75 C92.21 76.88, 90.99 78.71, 89.67 80.44 C88.34 82.16, 86.89 83.82, 85.36 85.36 C83.82 86.89, 82.16 88.34, 80.44 89.67 C78.71 90.99, 76.88 92.21, 75 93.3 C73.12 94.39, 71.14 95.36, 69.13 96.19 C67.12 97.03, 65.04 97.73, 62.94 98.3 C60.84 98.86, 58.68 99.29, 56.53 99.57 C54.37 99.86, 52.18 100, 50 100 C47.82 100, 45.63 99.86, 43.47 99.57 C41.32 99.29, 39.16 98.86, 37.06 98.3 C34.96 97.73, 32.88 97.03, 30.87 96.19 C28.86 95.36, 26.88 94.39, 25 93.3 C23.12 92.21, 21.29 90.99, 19.56 89.67 C17.84 88.34, 16.18 86.89, 14.64 85.36 C13.11 83.82, 11.66 82.16, 10.33 80.44 C9.01 78.71, 7.79 76.88, 6.7 75 C5.61 73.12, 4.64 71.14, 3.81 69.13 C2.97 67.12, 2.27 65.04, 1.7 62.94 C1.14 60.84, 0.71 58.68, 0.43 56.53 C0.14 54.37, 0 52.18, 0 50 C0 47.82, 0.14 45.63, 0.43 43.47 C0.71 41.32, 1.14 39.16, 1.7 37.06 C2.27 34.96, 2.97 32.88, 3.81 30.87 C4.64 28.86, 5.61 26.88, 6.7 25 C7.79 23.12, 9.01 21.29, 10.33 19.56 C11.66 17.84, 13.11 16.18, 14.64 14.64 C16.18 13.11, 17.84 11.66, 19.56 10.33 C21.29 9.01, 23.12 7.79, 25 6.7 C26.88 5.61, 28.86 4.64, 30.87 3.81 C32.88 2.97, 34.96 2.27, 37.06 1.7 C39.16 1.14, 41.32 0.71, 43.47 0.43 C45.63 0.14, 47.82 0, 50 0 C52.18 0, 54.37 0.14, 56.53 0.43 C58.68 0.71, 60.84 1.14, 62.94 1.7 C65.04 2.27, 67.12 2.97, 69.13 3.81 C71.14 4.64, 73.12 5.61, 75 6.7 C76.88 7.79, 78.71 9.01, 80.44 10.33 C82.16 11.66, 83.82 13.11, 85.36 14.64 C86.89 16.18, 88.34 17.84, 89.67 19.56 C90.99 21.29, 92.21 23.12, 93.3 25 C94.39 26.88, 95.36 28.86, 96.19 30.87 C97.03 32.88, 97.73 34.96, 98.3 37.06 C98.86 39.16, 99.29 41.32, 99.57 43.47 C99.86 45.63, 99.93 48.91, 100 50 C100.07 51.09, 100.07 48.91, 100 50" stroke="none" stroke-width="0" fill="#1e1e1e"></path><path d="M100 50 C100 52.18, 99.86 54.37, 99.57 56.53 C99.29 58.68, 98.86 60.84, 98.3 62.94 C97.73 65.04, 97.03 67.12, 96.19 69.13 C95.36 71.14, 94.39 73.12, 93.3 75 C92.21 76.88, 90.99 78.71, 89.67 80.44 C88.34 82.16, 86.89 83.82, 85.36 85.36 C83.82 86.89, 82.16 88.34, 80.44 89.67 C78.71 90.99, 76.88 92.21, 75 93.3 C73.12 94.39, 71.14 95.36, 69.13 96.19 C67.12 97.03, 65.04 97.73, 62.94 98.3 C60.84 98.86, 58.68 99.29, 56.53 99.57 C54.37 99.86, 52.18 100, 50 100 C47.82 100, 45.63 99.86, 43.47 99.57 C41.32 99.29, 39.16 98.86, 37.06 98.3 C34.96 97.73, 32.88 97.03, 30.87 96.19 C28.86 95.36, 26.88 94.39, 25 93.3 C23.12 92.21, 21.29 90.99, 19.56 89.67 C17.84 88.34, 16.18 86.89, 14.64 85.36 C13.11 83.82, 11.66 82.16, 10.33 80.44 C9.01 78.71, 7.79 76.88, 6.7 75 C5.61 73.12, 4.64 71.14, 3.81 69.13 C2.97 67.12, 2.27 65.04, 1.7 62.94 C1.14 60.84, 0.71 58.68, 0.43 56.53 C0.14 54.37, 0 52.18, 0 50 C0 47.82, 0.14 45.63, 0.43 43.47 C0.71 41.32, 1.14 39.16, 1.7 37.06 C2.27 34.96, 2.97 32.88, 3.81 30.87 C4.64 28.86, 5.61 26.88, 6.7 25 C7.79 23.12, 9.01 21.29, 10.33 19.56 C11.66 17.84, 13.11 16.18, 14.64 14.64 C16.18 13.11, 17.84 11.66, 19.56 10.33 C21.29 9.01, 23.12 7.79, 25 6.7 C26.88 5.61, 28.86 4.64, 30.87 3.81 C32.88 2.97, 34.96 2.27, 37.06 1.7 C39.16 1.14, 41.32 0.71, 43.47 0.43 C45.63 0.14, 47.82 0, 50 0 C52.18 0, 54.37 0.14, 56.53 0.43 C58.68 0.71, 60.84 1.14, 62.94 1.7 C65.04 2.27, 67.12 2.97, 69.13 3.81 C71.14 4.64, 73.12 5.61, 75 6.7 C76.88 7.79, 78.71 9.01, 80.44 10.33 C82.16 11.66, 83.82 13.11, 85.36 14.64 C86.89 16.18, 88.34 17.84, 89.67 19.56 C90.99 21.29, 92.21 23.12, 93.3 25 C94.39 26.88, 95.36 28.86, 96.19 30.87 C97.03 32.88, 97.73 34.96, 98.3 37.06 C98.86 39.16, 99.29 41.32, 99.57 43.47 C99.86 45.63, 99.93 48.91, 100 50 C100.07 51.09, 100.07 48.91, 100 50" stroke="#1e1e1e" stroke-width="1" fill="none"></path></g><g stroke-linecap="round" transform="translate(90 130) rotate(0 10 90)"><path d="M5 0 C8.11 0, 11.22 0, 15 0 C18.33 0, 20 1.67, 20 5 C20 51.6, 20 98.2, 20 175 C20 178.33, 18.33 180, 15 180 C12.88 180, 10.77 180, 5 180 C1.67 180, 0 178.33, 0 175 C0 131.58, 0 88.16, 0 5 C0 1.67, 1.67 0, 5 0" stroke="none" stroke-width="0" fill="#1e1e1e"></path><path d="M5 0 C8.55 0, 12.11 0, 15 0 M5 0 C8.63 0, 12.27 0, 15 0 M15 0 C18.33 0, 20 1.67, 20 5 M15 0 C18.33 0, 20 1.67, 20 5 M20 5 C20 53.72, 20 102.43, 20 175 M20 5 C20 46.45, 20 87.9, 20 175 M20 175 C20 178.33, 18.33 180, 15 180 M20 175 C20 178.33, 18.33 180, 15 180 M15 180 C12.77 180, 10.55 180, 5 180 M15 180 C12.98 180, 10.95 180, 5 180 M5 180 C1.67 180, 0 178.33, 0 175 M5 180 C1.67 180, 0 178.33, 0 175 M0 175 C0 132.15, 0 89.31, 0 5 M0 175 C0 139.67, 0 104.34, 0 5 M0 5 C0 1.67, 1.67 0, 5 0 M0 5 C0 1.67, 1.67 0, 5 0" stroke="#1e1e1e" stroke-width="1" fill="none"></path></g><g stroke-linecap="round" transform="translate(73.55249737960867 287.91843527608717) rotate(17.223572971059042 10 60)"><path d="M5 0 C8.74 0, 12.48 0, 15 0 C18.33 0, 20 1.67, 20 5 C20 47.24, 20 89.47, 20 115 C20 118.33, 18.33 120, 15 120 C11.71 120, 8.42 120, 5 120 C1.67 120, 0 118.33, 0 115 C0 85.23, 0 55.46, 0 5 C0 1.67, 1.67 0, 5 0" stroke="none" stroke-width="0" fill="#1e1e1e"></path><path d="M5 0 C8.42 0, 11.85 0, 15 0 M5 0 C8.49 0, 11.98 0, 15 0 M15 0 C18.33 0, 20 1.67, 20 5 M15 0 C18.33 0, 20 1.67, 20 5 M20 5 C20 30.29, 20 55.57, 20 115 M20 5 C20 27.12, 20 49.23, 20 115 M20 115 C20 118.33, 18.33 120, 15 120 M20 115 C20 118.33, 18.33 120, 15 120 M15 120 C11.71 120, 8.41 120, 5 120 M15 120 C11.53 120, 8.05 120, 5 120 M5 120 C1.67 120, 0 118.33, 0 115 M5 120 C1.67 120, 0 118.33, 0 115 M0 115 C0 90.26, 0 65.52, 0 5 M0 115 C0 80.5, 0 45.99, 0 5 M0 5 C0 1.67, 1.67 0, 5 0 M0 5 C0 1.67, 1.67 0, 5 0" stroke="#1e1e1e" stroke-width="1" fill="none"></path></g><g stroke-linecap="round" transform="translate(128.75433142109387 280.2193680581031) rotate(316.1871816958093 10 60)"><path d="M5 0 C7.78 0, 10.57 0, 15 0 C18.33 0, 20 1.67, 20 5 C20 39.54, 20 74.08, 20 115 C20 118.33, 18.33 120, 15 120 C12.7 120, 10.39 120, 5 120 C1.67 120, 0 118.33, 0 115 C0 88.19, 0 61.38, 0 5 C0 1.67, 1.67 0, 5 0" stroke="none" stroke-width="0" fill="#1e1e1e"></path><path d="M5 0 C8.84 0, 12.68 0, 15 0 M5 0 C7.73 0, 10.46 0, 15 0 M15 0 C18.33 0, 20 1.67, 20 5 M15 0 C18.33 0, 20 1.67, 20 5 M20 5 C20 38.83, 20 72.66, 20 115 M20 5 C20 46.79, 20 88.59, 20 115 M20 115 C20 118.33, 18.33 120, 15 120 M20 115 C20 118.33, 18.33 120, 15 120 M15 120 C12.03 120, 9.06 120, 5 120 M15 120 C12.42 120, 9.83 120, 5 120 M5 120 C1.67 120, 0 118.33, 0 115 M5 120 C1.67 120, 0 118.33, 0 115 M0 115 C0 74.25, 0 33.5, 0 5 M0 115 C0 71.07, 0 27.15, 0 5 M0 5 C0 1.67, 1.67 0, 5 0 M0 5 C0 1.67, 1.67 0, 5 0" stroke="#1e1e1e" stroke-width="1" fill="none"></path></g><g stroke-linecap="round" transform="translate(107.91475336860003 190.05258297193905) rotate(335.188021271438 10 44.89031597094845)"><path d="M5 0 C7.39 0, 9.77 0, 15 0 C18.33 0, 20 1.67, 20 5 C20 21.48, 20 37.96, 20 84.78 C20 88.11, 18.33 89.78, 15 89.78 C12.72 89.78, 10.44 89.78, 5 89.78 C1.67 89.78, 0 88.11, 0 84.78 C0 57.59, 0 30.39, 0 5 C0 1.67, 1.67 0, 5 0" stroke="none" stroke-width="0" fill="#1e1e1e"></path><path d="M5 0 C8.49 0, 11.98 0, 15 0 M5 0 C8.81 0, 12.62 0, 15 0 M15 0 C18.33 0, 20 1.67, 20 5 M15 0 C18.33 0, 20 1.67, 20 5 M20 5 C20 21.97, 20 38.94, 20 84.78 M20 5 C20 33.54, 20 62.09, 20 84.78 M20 84.78 C20 88.11, 18.33 89.78, 15 89.78 M20 84.78 C20 88.11, 18.33 89.78, 15 89.78 M15 89.78 C11.85 89.78, 8.69 89.78, 5 89.78 M15 89.78 C12.49 89.78, 9.97 89.78, 5 89.78 M5 89.78 C1.67 89.78, 0 88.11, 0 84.78 M5 89.78 C1.67 89.78, 0 88.11, 0 84.78 M0 84.78 C0 63.04, 0 41.29, 0 5 M0 84.78 C0 58.5, 0 32.22, 0 5 M0 5 C0 1.67, 1.67 0, 5 0 M0 5 C0 1.67, 1.67 0, 5 0" stroke="#1e1e1e" stroke-width="1" fill="none"></path></g><g stroke-linecap="round" transform="translate(62.01082073848829 179.88676923403682) rotate(53.430113843296084 10 44.89031597094845)"><path d="M5 0 C7.31 0, 9.62 0, 15 0 C18.33 0, 20 1.67, 20 5 C20 30.66, 20 56.33, 20 84.78 C20 88.11, 18.33 89.78, 15 89.78 C11.23 89.78, 7.47 89.78, 5 89.78 C1.67 89.78, 0 88.11, 0 84.78 C0 66.71, 0 48.65, 0 5 C0 1.67, 1.67 0, 5 0" stroke="none" stroke-width="0" fill="#1e1e1e"></path><path d="M5 0 C8.06 0, 11.12 0, 15 0 M5 0 C8.32 0, 11.65 0, 15 0 M15 0 C18.33 0, 20 1.67, 20 5 M15 0 C18.33 0, 20 1.67, 20 5 M20 5 C20 24.12, 20 43.24, 20 84.78 M20 5 C20 25.36, 20 45.72, 20 84.78 M20 84.78 C20 88.11, 18.33 89.78, 15 89.78 M20 84.78 C20 88.11, 18.33 89.78, 15 89.78 M15 89.78 C12.48 89.78, 9.97 89.78, 5 89.78 M15 89.78 C12.54 89.78, 10.07 89.78, 5 89.78 M5 89.78 C1.67 89.78, 0 88.11, 0 84.78 M5 89.78 C1.67 89.78, 0 88.11, 0 84.78 M0 84.78 C0 57.41, 0 30.04, 0 5 M0 84.78 C0 67.57, 0 50.36, 0 5 M0 5 C0 1.67, 1.67 0, 5 0 M0 5 C0 1.67, 1.67 0, 5 0" stroke="#1e1e1e" stroke-width="1" fill="none"></path></g><g stroke-linecap="round"><g transform="translate(349 230) rotate(0 -69 0)"><path d="M0 0 C-23 0, -115 0, -138 0 M0 0 C-23 0, -115 0, -138 0" stroke="#1e1e1e" stroke-width="2" fill="none"></path></g><g transform="translate(349 230) rotate(0 -69 0)"><path d="M-138 0 L-124.41 -6.34 L-124.41 6.34 L-138 0" stroke="none" stroke-width="0" fill="#1e1e1e" fill-rule="evenodd"></path><path d="M-138 0 C-134.62 -1.58, -131.24 -3.15, -124.41 -6.34 M-138 0 C-133.98 -1.88, -129.96 -3.75, -124.41 -6.34 M-124.41 -6.34 C-124.41 -1.94, -124.41 2.46, -124.41 6.34 M-124.41 -6.34 C-124.41 -3.3, -124.41 -0.26, -124.41 6.34 M-124.41 6.34 C-127.87 4.72, -131.34 3.1, -138 0 M-124.41 6.34 C-128.77 4.31, -133.13 2.27, -138 0 M-138 0 C-138 0, -138 0, -138 0 M-138 0 C-138 0, -138 0, -138 0" stroke="#1e1e1e" stroke-width="2" fill="none"></path></g></g><mask></mask><g stroke-linecap="round" transform="translate(10 10) rotate(0 100 220)"><path d="M32 0 C63.19 0, 94.37 0, 168 0 M32 0 C70.96 0, 109.92 0, 168 0 M168 0 C189.33 0, 200 10.67, 200 32 M168 0 C189.33 0, 200 10.67, 200 32 M200 32 C200 157.12, 200 282.24, 200 408 M200 32 C200 158.84, 200 285.67, 200 408 M200 408 C200 429.33, 189.33 440, 168 440 M200 408 C200 429.33, 189.33 440, 168 440 M168 440 C135.7 440, 103.4 440, 32 440 M168 440 C134.36 440, 100.71 440, 32 440 M32 440 C10.67 440, 0 429.33, 0 408 M32 440 C10.67 440, 0 429.33, 0 408 M0 408 C0 302.57, 0 197.15, 0 32 M0 408 C0 279.34, 0 150.69, 0 32 M0 32 C0 10.67, 10.67 0, 32 0 M0 32 C0 10.67, 10.67 0, 32 0" stroke="#1e1e1e" stroke-width="4" fill="none"></path></g><g stroke-linecap="round"><g transform="translate(1050 90) rotate(0 -50.64389137555645 71.01143350740585)"><path d="M0 0 C-6.83 20, -24.12 96.33, -41 120 C-57.88 143.67, -91.24 138.35, -101.29 142.02" stroke="#1e1e1e" stroke-width="2.5" fill="none" stroke-dasharray="8 10"></path></g><g transform="translate(1050 90) rotate(0 -50.64389137555645 71.01143350740585)"><path d="M-101.29 142.02 L-88.65 133.94 L-86.97 146.51 L-101.29 142.02" stroke="none" stroke-width="0" fill="#1e1e1e" fill-rule="evenodd"></path><path d="M-101.29 142.02 C-96.7 139.09, -92.11 136.15, -88.65 133.94 M-88.65 133.94 C-88.06 138.39, -87.46 142.84, -86.97 146.51 M-86.97 146.51 C-90.97 145.26, -94.97 144, -101.29 142.02 M-101.29 142.02 C-101.29 142.02, -101.29 142.02, -101.29 142.02" stroke="#1e1e1e" stroke-width="2.5" fill="none"></path></g></g><mask></mask><g stroke-linecap="round"><g transform="translate(1050 190) rotate(0 -50.64389137555645 21.046443259230728)"><path d="M0 0 C-6.83 6.67, -24.12 32.98, -41 40 C-57.88 47.02, -91.24 41.74, -101.29 42.09" stroke="#1e1e1e" stroke-width="2.5" fill="none" stroke-dasharray="8 10"></path></g><g transform="translate(1050 190) rotate(0 -50.64389137555645 21.046443259230728)"><path d="M-101.29 42.09 L-87.39 36.45 L-88.03 49.11 L-101.29 42.09" stroke="none" stroke-width="0" fill="#1e1e1e" fill-rule="evenodd"></path><path d="M-101.29 42.09 C-96.44 40.12, -91.58 38.15, -87.39 36.45 M-87.39 36.45 C-87.64 41.34, -87.88 46.22, -88.03 49.11 M-88.03 49.11 C-91.83 47.1, -95.63 45.09, -101.29 42.09 M-101.29 42.09 C-101.29 42.09, -101.29 42.09, -101.29 42.09" stroke="#1e1e1e" stroke-width="2.5" fill="none"></path></g></g><mask></mask><g stroke-linecap="round"><g transform="translate(1050 290) rotate(0 -50.64389137555645 -28.843626647410474)"><path d="M0 0 C-6.83 -6.67, -24.12 -30.39, -41 -40 C-57.88 -49.61, -91.24 -54.74, -101.29 -57.69" stroke="#1e1e1e" stroke-width="2.5" fill="none" stroke-dasharray="8 10"></path></g><g transform="translate(1050 290) rotate(0 -50.64389137555645 -28.843626647410474)"><path d="M-101.29 -57.69 L-86.61 -60.8 L-89.47 -48.44 L-101.29 -57.69" stroke="none" stroke-width="0" fill="#1e1e1e" fill-rule="evenodd"></path><path d="M-101.29 -57.69 C-97.28 -58.54, -93.28 -59.38, -86.61 -60.8 M-86.61 -60.8 C-87.3 -57.83, -87.99 -54.87, -89.47 -48.44 M-89.47 -48.44 C-92.19 -50.57, -94.91 -52.69, -101.29 -57.69 M-101.29 -57.69 C-101.29 -57.69, -101.29 -57.69, -101.29 -57.69" stroke="#1e1e1e" stroke-width="2.5" fill="none"></path></g></g><mask></mask><g stroke-linecap="round"><g transform="translate(1050 390) rotate(0 -50.64389137555645 -78.72922115827623)"><path d="M0 0 C-6.83 -20, -24.12 -93.76, -41 -120 C-57.88 -146.24, -91.24 -151.22, -101.29 -157.46" stroke="#1e1e1e" stroke-width="2.5" fill="none" stroke-dasharray="8 10"></path></g><g transform="translate(1050 390) rotate(0 -50.64389137555645 -78.72922115827623)"><path d="M-101.29 -157.46 L-86.3 -158.13 L-91.14 -146.41 L-101.29 -157.46" stroke="none" stroke-width="0" fill="#1e1e1e" fill-rule="evenodd"></path><path d="M-101.29 -157.46 C-95.58 -157.72, -89.87 -157.97, -86.3 -158.13 M-86.3 -158.13 C-87.29 -155.75, -88.27 -153.37, -91.14 -146.41 M-91.14 -146.41 C-94.26 -149.81, -97.38 -153.21, -101.29 -157.46 M-101.29 -157.46 C-101.29 -157.46, -101.29 -157.46, -101.29 -157.46" stroke="#1e1e1e" stroke-width="2.5" fill="none"></path></g></g><mask></mask><g stroke-linecap="round" transform="translate(849 30) rotate(0 50 200)"><path d="M25 0 C41.61 0, 58.23 0, 75 0 M75 0 C91.67 0, 100 8.33, 100 25 M100 25 C100 125.3, 100 225.59, 100 375 M100 375 C100 391.67, 91.67 400, 75 400 M75 400 C62.24 400, 49.48 400, 25 400 M25 400 C8.33 400, 0 391.67, 0 375 M0 375 C0 297.12, 0 219.23, 0 25 M0 25 C0 8.33, 8.33 0, 25 0" stroke="#1e1e1e" stroke-width="2.5" fill="none" stroke-dasharray="8 10"></path></g><g transform="translate(869 450) rotate(0 31.20996856689453 12.5)"><text x="31.20996856689453" y="0" font-family="Virgil, Segoe UI Emoji" font-size="20px" fill="#1e1e1e" text-anchor="middle" style="white-space: pre;" direction="ltr" dominant-baseline="text-before-edge">vector</text></g><g transform="translate(1073.2999801635742 450) rotate(0 29.889968872070312 12.5)"><text x="29.889968872070312" y="0" font-family="Virgil, Segoe UI Emoji" font-size="20px" fill="#1e1e1e" text-anchor="middle" style="white-space: pre;" direction="ltr" dominant-baseline="text-before-edge">traits</text></g><g stroke-linecap="round" transform="translate(869 50) rotate(0 30 35)"><path d="M15 0 C25.62 0, 36.24 0, 45 0 M15 0 C23.38 0, 31.76 0, 45 0 M45 0 C55 0, 60 5, 60 15 M45 0 C55 0, 60 5, 60 15 M60 15 C60 30.61, 60 46.22, 60 55 M60 15 C60 24.34, 60 33.67, 60 55 M60 55 C60 65, 55 70, 45 70 M60 55 C60 65, 55 70, 45 70 M45 70 C35.59 70, 26.17 70, 15 70 M45 70 C37.1 70, 29.2 70, 15 70 M15 70 C5 70, 0 65, 0 55 M15 70 C5 70, 0 65, 0 55 M0 55 C0 41.56, 0 28.11, 0 15 M0 55 C0 41.96, 0 28.91, 0 15 M0 15 C0 5, 5 0, 15 0 M0 15 C0 5, 5 0, 15 0" stroke="#1e1e1e" stroke-width="1" fill="none"></path></g><g transform="translate(886.1680145263672 55) rotate(0 12.831985473632812 30)"><text x="12.831985473632812" y="0" font-family="Virgil, Segoe UI Emoji" font-size="16px" fill="#1e1e1e" text-anchor="middle" style="white-space: pre;" direction="ltr" dominant-baseline="text-before-edge">1.3</text><text x="12.831985473632812" y="20" font-family="Virgil, Segoe UI Emoji" font-size="16px" fill="#1e1e1e" text-anchor="middle" style="white-space: pre;" direction="ltr" dominant-baseline="text-before-edge">4.1</text><text x="12.831985473632812" y="40" font-family="Virgil, Segoe UI Emoji" font-size="16px" fill="#1e1e1e" text-anchor="middle" style="white-space: pre;" direction="ltr" dominant-baseline="text-before-edge">5.2</text></g><g stroke-linecap="round" transform="translate(869 150) rotate(0 30 35)"><path d="M15 0 C22.19 0, 29.38 0, 45 0 M15 0 C21.9 0, 28.79 0, 45 0 M45 0 C55 0, 60 5, 60 15 M45 0 C55 0, 60 5, 60 15 M60 15 C60 30.86, 60 46.72, 60 55 M60 15 C60 28.17, 60 41.34, 60 55 M60 55 C60 65, 55 70, 45 70 M60 55 C60 65, 55 70, 45 70 M45 70 C38.78 70, 32.56 70, 15 70 M45 70 C38.25 70, 31.5 70, 15 70 M15 70 C5 70, 0 65, 0 55 M15 70 C5 70, 0 65, 0 55 M0 55 C0 43.59, 0 32.18, 0 15 M0 55 C0 40.04, 0 25.07, 0 15 M0 15 C0 5, 5 0, 15 0 M0 15 C0 5, 5 0, 15 0" stroke="#1e1e1e" stroke-width="1" fill="none"></path></g><g transform="translate(884.5760192871094 155) rotate(0 14.423980712890625 30)"><text x="14.423980712890625" y="0" font-family="Virgil, Segoe UI Emoji" font-size="16px" fill="#1e1e1e" text-anchor="middle" style="white-space: pre;" direction="ltr" dominant-baseline="text-before-edge">41.5</text><text x="14.423980712890625" y="20" font-family="Virgil, Segoe UI Emoji" font-size="16px" fill="#1e1e1e" text-anchor="middle" style="white-space: pre;" direction="ltr" dominant-baseline="text-before-edge">2.1</text><text x="14.423980712890625" y="40" font-family="Virgil, Segoe UI Emoji" font-size="16px" fill="#1e1e1e" text-anchor="middle" style="white-space: pre;" direction="ltr" dominant-baseline="text-before-edge">...</text></g><g stroke-linecap="round" transform="translate(869 250) rotate(0 30 35)"><path d="M15 0 C23.87 0, 32.74 0, 45 0 M15 0 C21.38 0, 27.76 0, 45 0 M45 0 C55 0, 60 5, 60 15 M45 0 C55 0, 60 5, 60 15 M60 15 C60 27.83, 60 40.66, 60 55 M60 15 C60 27.61, 60 40.23, 60 55 M60 55 C60 65, 55 70, 45 70 M60 55 C60 65, 55 70, 45 70 M45 70 C34.99 70, 24.98 70, 15 70 M45 70 C36.82 70, 28.65 70, 15 70 M15 70 C5 70, 0 65, 0 55 M15 70 C5 70, 0 65, 0 55 M0 55 C0 42.92, 0 30.84, 0 15 M0 55 C0 45.46, 0 35.92, 0 15 M0 15 C0 5, 5 0, 15 0 M0 15 C0 5, 5 0, 15 0" stroke="#1e1e1e" stroke-width="1" fill="none"></path></g><g transform="translate(884.2480163574219 255) rotate(0 14.751983642578125 30)"><text x="14.751983642578125" y="0" font-family="Virgil, Segoe UI Emoji" font-size="16px" fill="#1e1e1e" text-anchor="middle" style="white-space: pre;" direction="ltr" dominant-baseline="text-before-edge">51.3</text><text x="14.751983642578125" y="20" font-family="Virgil, Segoe UI Emoji" font-size="16px" fill="#1e1e1e" text-anchor="middle" style="white-space: pre;" direction="ltr" dominant-baseline="text-before-edge">5.2</text><text x="14.751983642578125" y="40" font-family="Virgil, Segoe UI Emoji" font-size="16px" fill="#1e1e1e" text-anchor="middle" style="white-space: pre;" direction="ltr" dominant-baseline="text-before-edge">...</text></g><g stroke-linecap="round" transform="translate(869 350) rotate(0 30 35)"><path d="M15 0 C22.72 0, 30.43 0, 45 0 M15 0 C25.24 0, 35.47 0, 45 0 M45 0 C55 0, 60 5, 60 15 M45 0 C55 0, 60 5, 60 15 M60 15 C60 26.46, 60 37.92, 60 55 M60 15 C60 24.24, 60 33.48, 60 55 M60 55 C60 65, 55 70, 45 70 M60 55 C60 65, 55 70, 45 70 M45 70 C37.09 70, 29.17 70, 15 70 M45 70 C34.14 70, 23.28 70, 15 70 M15 70 C5 70, 0 65, 0 55 M15 70 C5 70, 0 65, 0 55 M0 55 C0 40.44, 0 25.87, 0 15 M0 55 C0 43.71, 0 32.41, 0 15 M0 15 C0 5, 5 0, 15 0 M0 15 C0 5, 5 0, 15 0" stroke="#1e1e1e" stroke-width="1" fill="none"></path></g><g transform="translate(893.4960021972656 355) rotate(0 5.503997802734375 30)"><text x="5.503997802734375" y="0" font-family="Virgil, Segoe UI Emoji" font-size="16px" fill="#1e1e1e" text-anchor="middle" style="white-space: pre;" direction="ltr" dominant-baseline="text-before-edge">0</text><text x="5.503997802734375" y="20" font-family="Virgil, Segoe UI Emoji" font-size="16px" fill="#1e1e1e" text-anchor="middle" style="white-space: pre;" direction="ltr" dominant-baseline="text-before-edge">1</text><text x="5.503997802734375" y="40" font-family="Virgil, Segoe UI Emoji" font-size="16px" fill="#1e1e1e" text-anchor="middle" style="white-space: pre;" direction="ltr" dominant-baseline="text-before-edge">0</text></g><g mask="url(#mask-VMkopesn4CpyADlZEPrUH)" stroke-linecap="round"><g transform="translate(848 230.00000003742298) rotate(0 -98.5 -9.238647180609405e-9)"><path d="M0 0 C-32.83 0, -164.17 0, -197 0 M0 0 C-32.83 0, -164.17 0, -197 0" stroke="#1e1e1e" stroke-width="2" fill="none"></path></g><g transform="translate(848 230.00000003742298) rotate(0 -98.5 -9.238647180609405e-9)"><path d="M-197 0 L-183.41 -6.34 L-183.41 6.34 L-197 0" stroke="none" stroke-width="0" fill="#1e1e1e" fill-rule="evenodd"></path><path d="M-197 0 C-193.1 -1.82, -189.21 -3.63, -183.41 -6.34 M-197 0 C-193.69 -1.55, -190.37 -3.09, -183.41 -6.34 M-183.41 -6.34 C-183.41 -1.39, -183.41 3.56, -183.41 6.34 M-183.41 -6.34 C-183.41 -3.38, -183.41 -0.42, -183.41 6.34 M-183.41 6.34 C-186.63 4.83, -189.86 3.33, -197 0 M-183.41 6.34 C-186.77 4.77, -190.13 3.2, -197 0 M-197 0 C-197 0, -197 0, -197 0 M-197 0 C-197 0, -197 0, -197 0" stroke="#1e1e1e" stroke-width="2" fill="none"></path></g></g><mask id="mask-VMkopesn4CpyADlZEPrUH"><rect x="0" y="0" fill="#fff" width="1145" height="330.0000000559003"></rect><rect x="720.890022277832" y="217.50000002818433" fill="#000" width="57.21995544433594" height="25" opacity="1"></rect></mask><g transform="translate(720.890022277832 217.50000002818433) rotate(0 28.60997772216797 12.5)"><text x="28.60997772216797" y="0" font-family="Virgil, Segoe UI Emoji" font-size="20px" fill="#1e1e1e" text-anchor="middle" style="white-space: pre;" direction="ltr" dominant-baseline="text-before-edge">match</text></g><g stroke-linecap="round" transform="translate(568.4744215420869 75.47944680403725) rotate(0 16.875 30)"><path d="M8.44 0 C14.69 0, 20.94 0, 25.31 0 C30.94 0, 33.75 2.81, 33.75 8.44 C33.75 23.19, 33.75 37.95, 33.75 51.56 C33.75 57.19, 30.94 60, 25.31 60 C20.62 60, 15.92 60, 8.44 60 C2.81 60, 0 57.19, 0 51.56 C0 38.02, 0 24.48, 0 8.44 C0 2.81, 2.81 0, 8.44 0" stroke="none" stroke-width="0" fill="#1e1e1e"></path><path d="M8.44 0 C13.63 0, 18.82 0, 25.31 0 M25.31 0 C30.94 0, 33.75 2.81, 33.75 8.44 M33.75 8.44 C33.75 22.98, 33.75 37.53, 33.75 51.56 M33.75 51.56 C33.75 57.19, 30.94 60, 25.31 60 M25.31 60 C20.3 60, 15.29 60, 8.44 60 M8.44 60 C2.81 60, 0 57.19, 0 51.56 M0 51.56 C0 40.89, 0 30.23, 0 8.44 M0 8.44 C0 2.81, 2.81 0, 8.44 0" stroke="#ffffff" stroke-width="1.5" fill="none" stroke-dasharray="8 9"></path></g><g stroke-linecap="round" transform="translate(575.2244215420869 75.35444680403725) rotate(0 10.125 8.5)"><path d="M4.25 0 C6.93 0, 9.61 0, 16 0 C18.83 0, 20.25 1.42, 20.25 4.25 C20.25 7.15, 20.25 10.04, 20.25 12.75 C20.25 15.58, 18.83 17, 16 17 C12.02 17, 8.05 17, 4.25 17 C1.42 17, 0 15.58, 0 12.75 C0 10.64, 0 8.52, 0 4.25 C0 1.42, 1.42 0, 4.25 0" stroke="none" stroke-width="0" fill="#1e1e1e"></path><path d="M4.25 0 C6.75 0, 9.25 0, 16 0 M4.25 0 C8.45 0, 12.66 0, 16 0 M16 0 C18.83 0, 20.25 1.42, 20.25 4.25 M16 0 C18.83 0, 20.25 1.42, 20.25 4.25 M20.25 4.25 C20.25 6.93, 20.25 9.61, 20.25 12.75 M20.25 4.25 C20.25 6.39, 20.25 8.52, 20.25 12.75 M20.25 12.75 C20.25 15.58, 18.83 17, 16 17 M20.25 12.75 C20.25 15.58, 18.83 17, 16 17 M16 17 C12.8 17, 9.59 17, 4.25 17 M16 17 C12.13 17, 8.26 17, 4.25 17 M4.25 17 C1.42 17, 0 15.58, 0 12.75 M4.25 17 C1.42 17, 0 15.58, 0 12.75 M0 12.75 C0 10.72, 0 8.69, 0 4.25 M0 12.75 C0 9.95, 0 7.15, 0 4.25 M0 4.25 C0 1.42, 1.42 0, 4.25 0 M0 4.25 C0 1.42, 1.42 0, 4.25 0" stroke="#ffffff" stroke-width="1" fill="none"></path></g><g transform="translate(583.1300230435518 80.47944680403725) rotate(0 2.2193984985351562 3.375)"><text x="2.2193984985351562" y="0" font-family="Virgil, Segoe UI Emoji" font-size="5.4px" fill="#ffffff" text-anchor="middle" style="white-space: pre;" direction="ltr" dominant-baseline="text-before-edge">...</text></g><g stroke-linecap="round" transform="translate(575.2244215420869 97.85444680403725) rotate(0 10.125 8.5)"><path d="M4.25 0 C7.38 0, 10.51 0, 16 0 C18.83 0, 20.25 1.42, 20.25 4.25 C20.25 7.09, 20.25 9.93, 20.25 12.75 C20.25 15.58, 18.83 17, 16 17 C13.23 17, 10.45 17, 4.25 17 C1.42 17, 0 15.58, 0 12.75 C0 9.73, 0 6.72, 0 4.25 C0 1.42, 1.42 0, 4.25 0" stroke="none" stroke-width="0" fill="#1e1e1e"></path><path d="M4.25 0 C8.26 0, 12.27 0, 16 0 M4.25 0 C7.18 0, 10.11 0, 16 0 M16 0 C18.83 0, 20.25 1.42, 20.25 4.25 M16 0 C18.83 0, 20.25 1.42, 20.25 4.25 M20.25 4.25 C20.25 6.21, 20.25 8.18, 20.25 12.75 M20.25 4.25 C20.25 7.06, 20.25 9.88, 20.25 12.75 M20.25 12.75 C20.25 15.58, 18.83 17, 16 17 M20.25 12.75 C20.25 15.58, 18.83 17, 16 17 M16 17 C11.75 17, 7.49 17, 4.25 17 M16 17 C13.61 17, 11.22 17, 4.25 17 M4.25 17 C1.42 17, 0 15.58, 0 12.75 M4.25 17 C1.42 17, 0 15.58, 0 12.75 M0 12.75 C0 10.35, 0 7.95, 0 4.25 M0 12.75 C0 9.49, 0 6.22, 0 4.25 M0 4.25 C0 1.42, 1.42 0, 4.25 0 M0 4.25 C0 1.42, 1.42 0, 4.25 0" stroke="#ffffff" stroke-width="1" fill="none"></path></g><g transform="translate(583.1300230435518 102.97944680403725) rotate(0 2.2193984985351562 3.375)"><text x="2.2193984985351562" y="0" font-family="Virgil, Segoe UI Emoji" font-size="5.4px" fill="#ffffff" text-anchor="middle" style="white-space: pre;" direction="ltr" dominant-baseline="text-before-edge">...</text></g><g stroke-linecap="round" transform="translate(575.2244215420869 116.60444680403725) rotate(0 10.125 8.5)"><path d="M4.25 0 C6.68 0, 9.11 0, 16 0 C18.83 0, 20.25 1.42, 20.25 4.25 C20.25 7.11, 20.25 9.97, 20.25 12.75 C20.25 15.58, 18.83 17, 16 17 C11.59 17, 7.18 17, 4.25 17 C1.42 17, 0 15.58, 0 12.75 C0 9.48, 0 6.22, 0 4.25 C0 1.42, 1.42 0, 4.25 0" stroke="none" stroke-width="0" fill="#1e1e1e"></path><path d="M4.25 0 C7.11 0, 9.98 0, 16 0 M4.25 0 C8.84 0, 13.42 0, 16 0 M16 0 C18.83 0, 20.25 1.42, 20.25 4.25 M16 0 C18.83 0, 20.25 1.42, 20.25 4.25 M20.25 4.25 C20.25 5.97, 20.25 7.69, 20.25 12.75 M20.25 4.25 C20.25 6.92, 20.25 9.58, 20.25 12.75 M20.25 12.75 C20.25 15.58, 18.83 17, 16 17 M20.25 12.75 C20.25 15.58, 18.83 17, 16 17 M16 17 C13.56 17, 11.12 17, 4.25 17 M16 17 C12.05 17, 8.1 17, 4.25 17 M4.25 17 C1.42 17, 0 15.58, 0 12.75 M4.25 17 C1.42 17, 0 15.58, 0 12.75 M0 12.75 C0 9.36, 0 5.96, 0 4.25 M0 12.75 C0 10.99, 0 9.24, 0 4.25 M0 4.25 C0 1.42, 1.42 0, 4.25 0 M0 4.25 C0 1.42, 1.42 0, 4.25 0" stroke="#ffffff" stroke-width="1" fill="none"></path></g><g transform="translate(583.1300230435518 121.72944680403725) rotate(0 2.2193984985351562 3.375)"><text x="2.2193984985351562" y="0" font-family="Virgil, Segoe UI Emoji" font-size="5.4px" fill="#ffffff" text-anchor="middle" style="white-space: pre;" direction="ltr" dominant-baseline="text-before-edge">...</text></g><g stroke-linecap="round" transform="translate(548.4744215420869 95.35444680403725) rotate(0 20 30)"><path d="M0 0 L40 0 L40 60 L0 60" stroke="none" stroke-width="0" fill="#ffffff"></path><path d="M0 0 C15.2 0, 30.4 0, 40 0 M0 0 C15.86 0, 31.72 0, 40 0 M40 0 C40 19.76, 40 39.51, 40 60 M40 0 C40 20.84, 40 41.67, 40 60 M40 60 C28.32 60, 16.65 60, 0 60 M40 60 C29.92 60, 19.84 60, 0 60 M0 60 C0 47.53, 0 35.06, 0 0 M0 60 C0 39.83, 0 19.67, 0 0" stroke="#1971c2" stroke-width="2" fill="none"></path></g><g stroke-linecap="round" transform="translate(561.2101216423921 103.80967087669887) rotate(0 5.330825303414031 5.330825303414031)"><path d="M10.66 5.33 C10.66 5.64, 10.63 5.95, 10.58 6.26 C10.53 6.56, 10.45 6.86, 10.34 7.15 C10.23 7.44, 10.1 7.73, 9.95 8 C9.79 8.26, 9.61 8.52, 9.41 8.76 C9.22 8.99, 8.99 9.22, 8.76 9.41 C8.52 9.61, 8.26 9.79, 8 9.95 C7.73 10.1, 7.44 10.23, 7.15 10.34 C6.86 10.45, 6.56 10.53, 6.26 10.58 C5.95 10.63, 5.64 10.66, 5.33 10.66 C5.02 10.66, 4.71 10.63, 4.41 10.58 C4.1 10.53, 3.8 10.45, 3.51 10.34 C3.22 10.23, 2.93 10.1, 2.67 9.95 C2.4 9.79, 2.14 9.61, 1.9 9.41 C1.67 9.22, 1.45 8.99, 1.25 8.76 C1.05 8.52, 0.87 8.26, 0.71 8 C0.56 7.73, 0.43 7.44, 0.32 7.15 C0.22 6.86, 0.13 6.56, 0.08 6.26 C0.03 5.95, 0 5.64, 0 5.33 C0 5.02, 0.03 4.71, 0.08 4.41 C0.13 4.1, 0.22 3.8, 0.32 3.51 C0.43 3.22, 0.56 2.93, 0.71 2.67 C0.87 2.4, 1.05 2.14, 1.25 1.9 C1.45 1.67, 1.67 1.45, 1.9 1.25 C2.14 1.05, 2.4 0.87, 2.67 0.71 C2.93 0.56, 3.22 0.43, 3.51 0.32 C3.8 0.22, 4.1 0.13, 4.41 0.08 C4.71 0.03, 5.02 0, 5.33 0 C5.64 0, 5.95 0.03, 6.26 0.08 C6.56 0.13, 6.86 0.22, 7.15 0.32 C7.44 0.43, 7.73 0.56, 8 0.71 C8.26 0.87, 8.52 1.05, 8.76 1.25 C8.99 1.45, 9.22 1.67, 9.41 1.9 C9.61 2.14, 9.79 2.4, 9.95 2.67 C10.1 2.93, 10.23 3.22, 10.34 3.51 C10.45 3.8, 10.53 4.1, 10.58 4.41 C10.63 4.71, 10.65 5.18, 10.66 5.33 C10.68 5.49, 10.68 5.18, 10.66 5.33" stroke="none" stroke-width="0" fill="#1e1e1e"></path><path d="M10.66 5.33 C10.66 5.64, 10.63 5.95, 10.58 6.26 C10.53 6.56, 10.45 6.86, 10.34 7.15 C10.23 7.44, 10.1 7.73, 9.95 8 C9.79 8.26, 9.61 8.52, 9.41 8.76 C9.22 8.99, 8.99 9.22, 8.76 9.41 C8.52 9.61, 8.26 9.79, 8 9.95 C7.73 10.1, 7.44 10.23, 7.15 10.34 C6.86 10.45, 6.56 10.53, 6.26 10.58 C5.95 10.63, 5.64 10.66, 5.33 10.66 C5.02 10.66, 4.71 10.63, 4.41 10.58 C4.1 10.53, 3.8 10.45, 3.51 10.34 C3.22 10.23, 2.93 10.1, 2.67 9.95 C2.4 9.79, 2.14 9.61, 1.9 9.41 C1.67 9.22, 1.45 8.99, 1.25 8.76 C1.05 8.52, 0.87 8.26, 0.71 8 C0.56 7.73, 0.43 7.44, 0.32 7.15 C0.22 6.86, 0.13 6.56, 0.08 6.26 C0.03 5.95, 0 5.64, 0 5.33 C0 5.02, 0.03 4.71, 0.08 4.41 C0.13 4.1, 0.22 3.8, 0.32 3.51 C0.43 3.22, 0.56 2.93, 0.71 2.67 C0.87 2.4, 1.05 2.14, 1.25 1.9 C1.45 1.67, 1.67 1.45, 1.9 1.25 C2.14 1.05, 2.4 0.87, 2.67 0.71 C2.93 0.56, 3.22 0.43, 3.51 0.32 C3.8 0.22, 4.1 0.13, 4.41 0.08 C4.71 0.03, 5.02 0, 5.33 0 C5.64 0, 5.95 0.03, 6.26 0.08 C6.56 0.13, 6.86 0.22, 7.15 0.32 C7.44 0.43, 7.73 0.56, 8 0.71 C8.26 0.87, 8.52 1.05, 8.76 1.25 C8.99 1.45, 9.22 1.67, 9.41 1.9 C9.61 2.14, 9.79 2.4, 9.95 2.67 C10.1 2.93, 10.23 3.22, 10.34 3.51 C10.45 3.8, 10.53 4.1, 10.58 4.41 C10.63 4.71, 10.65 5.18, 10.66 5.33 C10.68 5.49, 10.68 5.18, 10.66 5.33" stroke="#1e1e1e" stroke-width="1" fill="none"></path></g><g stroke-linecap="round" transform="translate(565.4747818851233 112.33899136216132) rotate(0 1.0661650606828061 9.595485546145255)"><path d="M0.53 0 C0.81 0, 1.08 0, 1.6 0 C1.95 0, 2.13 0.18, 2.13 0.53 C2.13 7.21, 2.13 13.88, 2.13 18.66 C2.13 19.01, 1.95 19.19, 1.6 19.19 C1.24 19.19, 0.88 19.19, 0.53 19.19 C0.18 19.19, 0 19.01, 0 18.66 C0 14.52, 0 10.38, 0 0.53 C0 0.18, 0.18 0, 0.53 0" stroke="none" stroke-width="0" fill="#1e1e1e"></path><path d="M0.53 0 C0.81 0, 1.08 0, 1.6 0 M0.53 0 C0.88 0, 1.22 0, 1.6 0 M1.6 0 C1.95 0, 2.13 0.18, 2.13 0.53 M1.6 0 C1.95 0, 2.13 0.18, 2.13 0.53 M2.13 0.53 C2.13 5, 2.13 9.47, 2.13 18.66 M2.13 0.53 C2.13 6.58, 2.13 12.63, 2.13 18.66 M2.13 18.66 C2.13 19.01, 1.95 19.19, 1.6 19.19 M2.13 18.66 C2.13 19.01, 1.95 19.19, 1.6 19.19 M1.6 19.19 C1.37 19.19, 1.14 19.19, 0.53 19.19 M1.6 19.19 C1.28 19.19, 0.96 19.19, 0.53 19.19 M0.53 19.19 C0.18 19.19, 0 19.01, 0 18.66 M0.53 19.19 C0.18 19.19, 0 19.01, 0 18.66 M0 18.66 C0 13.69, 0 8.72, 0 0.53 M0 18.66 C0 11.41, 0 4.16, 0 0.53 M0 0.53 C0 0.18, 0.18 0, 0.53 0 M0 0.53 C0 0.18, 0.18 0, 0.53 0" stroke="#1e1e1e" stroke-width="1" fill="none"></path></g><g stroke-linecap="round" transform="translate(563.7212066221882 129.17570317506716) rotate(17.223572971059042 1.0661650606828061 6.396990364096837)"><path d="M0.53 0 C0.82 0, 1.11 0, 1.6 0 C1.95 0, 2.13 0.18, 2.13 0.53 C2.13 3.56, 2.13 6.6, 2.13 12.26 C2.13 12.62, 1.95 12.79, 1.6 12.79 C1.31 12.79, 1.02 12.79, 0.53 12.79 C0.18 12.79, 0 12.62, 0 12.26 C0 7.92, 0 3.59, 0 0.53 C0 0.18, 0.18 0, 0.53 0" stroke="none" stroke-width="0" fill="#1e1e1e"></path><path d="M0.53 0 C0.8 0, 1.06 0, 1.6 0 M0.53 0 C0.92 0, 1.3 0, 1.6 0 M1.6 0 C1.95 0, 2.13 0.18, 2.13 0.53 M1.6 0 C1.95 0, 2.13 0.18, 2.13 0.53 M2.13 0.53 C2.13 4.41, 2.13 8.3, 2.13 12.26 M2.13 0.53 C2.13 4.93, 2.13 9.33, 2.13 12.26 M2.13 12.26 C2.13 12.62, 1.95 12.79, 1.6 12.79 M2.13 12.26 C2.13 12.62, 1.95 12.79, 1.6 12.79 M1.6 12.79 C1.38 12.79, 1.17 12.79, 0.53 12.79 M1.6 12.79 C1.23 12.79, 0.86 12.79, 0.53 12.79 M0.53 12.79 C0.18 12.79, 0 12.62, 0 12.26 M0.53 12.79 C0.18 12.79, 0 12.62, 0 12.26 M0 12.26 C0 7.76, 0 3.25, 0 0.53 M0 12.26 C0 8.83, 0 5.4, 0 0.53 M0 0.53 C0 0.18, 0.18 0, 0.53 0 M0 0.53 C0 0.18, 0.18 0, 0.53 0" stroke="#1e1e1e" stroke-width="1" fill="none"></path></g><g stroke-linecap="round" transform="translate(569.6066332962523 128.35485552830096) rotate(316.1871816958093 1.0661650606828061 6.396990364096837)"><path d="M0.53 0 C0.79 0, 1.05 0, 1.6 0 C1.95 0, 2.13 0.18, 2.13 0.53 C2.13 4.34, 2.13 8.14, 2.13 12.26 C2.13 12.62, 1.95 12.79, 1.6 12.79 C1.26 12.79, 0.91 12.79, 0.53 12.79 C0.18 12.79, 0 12.62, 0 12.26 C0 9.04, 0 5.82, 0 0.53 C0 0.18, 0.18 0, 0.53 0" stroke="none" stroke-width="0" fill="#1e1e1e"></path><path d="M0.53 0 C0.89 0, 1.25 0, 1.6 0 M0.53 0 C0.84 0, 1.14 0, 1.6 0 M1.6 0 C1.95 0, 2.13 0.18, 2.13 0.53 M1.6 0 C1.95 0, 2.13 0.18, 2.13 0.53 M2.13 0.53 C2.13 3.43, 2.13 6.34, 2.13 12.26 M2.13 0.53 C2.13 3.63, 2.13 6.72, 2.13 12.26 M2.13 12.26 C2.13 12.62, 1.95 12.79, 1.6 12.79 M2.13 12.26 C2.13 12.62, 1.95 12.79, 1.6 12.79 M1.6 12.79 C1.23 12.79, 0.87 12.79, 0.53 12.79 M1.6 12.79 C1.21 12.79, 0.82 12.79, 0.53 12.79 M0.53 12.79 C0.18 12.79, 0 12.62, 0 12.26 M0.53 12.79 C0.18 12.79, 0 12.62, 0 12.26 M0 12.26 C0 8.58, 0 4.9, 0 0.53 M0 12.26 C0 8.11, 0 3.96, 0 0.53 M0 0.53 C0 0.18, 0.18 0, 0.53 0 M0 0.53 C0 0.18, 0.18 0, 0.53 0" stroke="#1e1e1e" stroke-width="1" fill="none"></path></g><g stroke-linecap="round" transform="translate(567.3847902963585 118.7415879390046) rotate(335.188021271438 1.0661650606828061 4.786048645123628)"><path d="M0.53 0 C0.9 0, 1.26 0, 1.6 0 C1.95 0, 2.13 0.18, 2.13 0.53 C2.13 3.41, 2.13 6.29, 2.13 9.04 C2.13 9.39, 1.95 9.57, 1.6 9.57 C1.33 9.57, 1.07 9.57, 0.53 9.57 C0.18 9.57, 0 9.39, 0 9.04 C0 6.74, 0 4.44, 0 0.53 C0 0.18, 0.18 0, 0.53 0" stroke="none" stroke-width="0" fill="#1e1e1e"></path><path d="M0.53 0 C0.95 0, 1.37 0, 1.6 0 M0.53 0 C0.78 0, 1.03 0, 1.6 0 M1.6 0 C1.95 0, 2.13 0.18, 2.13 0.53 M1.6 0 C1.95 0, 2.13 0.18, 2.13 0.53 M2.13 0.53 C2.13 3.2, 2.13 5.87, 2.13 9.04 M2.13 0.53 C2.13 2.77, 2.13 5.01, 2.13 9.04 M2.13 9.04 C2.13 9.39, 1.95 9.57, 1.6 9.57 M2.13 9.04 C2.13 9.39, 1.95 9.57, 1.6 9.57 M1.6 9.57 C1.24 9.57, 0.88 9.57, 0.53 9.57 M1.6 9.57 C1.25 9.57, 0.9 9.57, 0.53 9.57 M0.53 9.57 C0.18 9.57, 0 9.39, 0 9.04 M0.53 9.57 C0.18 9.57, 0 9.39, 0 9.04 M0 9.04 C0 7.28, 0 5.52, 0 0.53 M0 9.04 C0 7.27, 0 5.5, 0 0.53 M0 0.53 C0 0.18, 0.18 0, 0.53 0 M0 0.53 C0 0.18, 0.18 0, 0.53 0" stroke="#1e1e1e" stroke-width="1" fill="none"></path></g><g stroke-linecap="round" transform="translate(562.4906733845423 117.65774439692859) rotate(53.430113843296084 1.0661650606828061 4.786048645123628)"><path d="M0.53 0 C0.77 0, 1.02 0, 1.6 0 C1.95 0, 2.13 0.18, 2.13 0.53 C2.13 3.2, 2.13 5.87, 2.13 9.04 C2.13 9.39, 1.95 9.57, 1.6 9.57 C1.39 9.57, 1.17 9.57, 0.53 9.57 C0.18 9.57, 0 9.39, 0 9.04 C0 6.69, 0 4.33, 0 0.53 C0 0.18, 0.18 0, 0.53 0" stroke="none" stroke-width="0" fill="#1e1e1e"></path><path d="M0.53 0 C0.82 0, 1.11 0, 1.6 0 M0.53 0 C0.77 0, 1.01 0, 1.6 0 M1.6 0 C1.95 0, 2.13 0.18, 2.13 0.53 M1.6 0 C1.95 0, 2.13 0.18, 2.13 0.53 M2.13 0.53 C2.13 3.02, 2.13 5.5, 2.13 9.04 M2.13 0.53 C2.13 2.68, 2.13 4.82, 2.13 9.04 M2.13 9.04 C2.13 9.39, 1.95 9.57, 1.6 9.57 M2.13 9.04 C2.13 9.39, 1.95 9.57, 1.6 9.57 M1.6 9.57 C1.3 9.57, 0.99 9.57, 0.53 9.57 M1.6 9.57 C1.27 9.57, 0.94 9.57, 0.53 9.57 M0.53 9.57 C0.18 9.57, 0 9.39, 0 9.04 M0.53 9.57 C0.18 9.57, 0 9.39, 0 9.04 M0 9.04 C0 6.3, 0 3.57, 0 0.53 M0 9.04 C0 7.24, 0 5.44, 0 0.53 M0 0.53 C0 0.18, 0.18 0, 0.53 0 M0 0.53 C0 0.18, 0.18 0, 0.53 0" stroke="#1e1e1e" stroke-width="1" fill="none"></path></g><g stroke-linecap="round" transform="translate(588.4744215420869 95.47944680403725) rotate(0 16.875 30)"><path d="M8.44 0 C13.25 0, 18.06 0, 25.31 0 C30.94 0, 33.75 2.81, 33.75 8.44 C33.75 20.61, 33.75 32.79, 33.75 51.56 C33.75 57.19, 30.94 60, 25.31 60 C19.14 60, 12.98 60, 8.44 60 C2.81 60, 0 57.19, 0 51.56 C0 40.08, 0 28.59, 0 8.44 C0 2.81, 2.81 0, 8.44 0" stroke="none" stroke-width="0" fill="#1e1e1e"></path><path d="M8.44 0 C15.13 0, 21.82 0, 25.31 0 M25.31 0 C30.94 0, 33.75 2.81, 33.75 8.44 M33.75 8.44 C33.75 18.4, 33.75 28.36, 33.75 51.56 M33.75 51.56 C33.75 57.19, 30.94 60, 25.31 60 M25.31 60 C21.81 60, 18.31 60, 8.44 60 M8.44 60 C2.81 60, 0 57.19, 0 51.56 M0 51.56 C0 35.95, 0 20.34, 0 8.44 M0 8.44 C0 2.81, 2.81 0, 8.44 0" stroke="#ffffff" stroke-width="1.5" fill="none" stroke-dasharray="8 9"></path></g><g stroke-linecap="round" transform="translate(595.2244215420869 95.35444680403725) rotate(0 10.125 8.5)"><path d="M4.25 0 C7.95 0, 11.64 0, 16 0 C18.83 0, 20.25 1.42, 20.25 4.25 C20.25 6.65, 20.25 9.06, 20.25 12.75 C20.25 15.58, 18.83 17, 16 17 C12.46 17, 8.92 17, 4.25 17 C1.42 17, 0 15.58, 0 12.75 C0 9.53, 0 6.31, 0 4.25 C0 1.42, 1.42 0, 4.25 0" stroke="none" stroke-width="0" fill="#1e1e1e"></path><path d="M4.25 0 C8.91 0, 13.57 0, 16 0 M4.25 0 C7.74 0, 11.23 0, 16 0 M16 0 C18.83 0, 20.25 1.42, 20.25 4.25 M16 0 C18.83 0, 20.25 1.42, 20.25 4.25 M20.25 4.25 C20.25 7.44, 20.25 10.64, 20.25 12.75 M20.25 4.25 C20.25 7.4, 20.25 10.55, 20.25 12.75 M20.25 12.75 C20.25 15.58, 18.83 17, 16 17 M20.25 12.75 C20.25 15.58, 18.83 17, 16 17 M16 17 C12.62 17, 9.23 17, 4.25 17 M16 17 C12.73 17, 9.46 17, 4.25 17 M4.25 17 C1.42 17, 0 15.58, 0 12.75 M4.25 17 C1.42 17, 0 15.58, 0 12.75 M0 12.75 C0 10.38, 0 8.01, 0 4.25 M0 12.75 C0 10.79, 0 8.83, 0 4.25 M0 4.25 C0 1.42, 1.42 0, 4.25 0 M0 4.25 C0 1.42, 1.42 0, 4.25 0" stroke="#ffffff" stroke-width="1" fill="none"></path></g><g transform="translate(603.1300230435518 100.47944680403725) rotate(0 2.2193984985351562 3.375)"><text x="2.2193984985351562" y="0" font-family="Virgil, Segoe UI Emoji" font-size="5.4px" fill="#ffffff" text-anchor="middle" style="white-space: pre;" direction="ltr" dominant-baseline="text-before-edge">...</text></g><g stroke-linecap="round" transform="translate(595.2244215420869 117.85444680403725) rotate(0 10.125 8.5)"><path d="M4.25 0 C6.78 0, 9.3 0, 16 0 C18.83 0, 20.25 1.42, 20.25 4.25 C20.25 6.24, 20.25 8.22, 20.25 12.75 C20.25 15.58, 18.83 17, 16 17 C12.18 17, 8.36 17, 4.25 17 C1.42 17, 0 15.58, 0 12.75 C0 10.56, 0 8.36, 0 4.25 C0 1.42, 1.42 0, 4.25 0" stroke="none" stroke-width="0" fill="#1e1e1e"></path><path d="M4.25 0 C8.48 0, 12.71 0, 16 0 M4.25 0 C7.21 0, 10.17 0, 16 0 M16 0 C18.83 0, 20.25 1.42, 20.25 4.25 M16 0 C18.83 0, 20.25 1.42, 20.25 4.25 M20.25 4.25 C20.25 7.44, 20.25 10.63, 20.25 12.75 M20.25 4.25 C20.25 7.17, 20.25 10.08, 20.25 12.75 M20.25 12.75 C20.25 15.58, 18.83 17, 16 17 M20.25 12.75 C20.25 15.58, 18.83 17, 16 17 M16 17 C11.93 17, 7.85 17, 4.25 17 M16 17 C13.29 17, 10.57 17, 4.25 17 M4.25 17 C1.42 17, 0 15.58, 0 12.75 M4.25 17 C1.42 17, 0 15.58, 0 12.75 M0 12.75 C0 10.26, 0 7.78, 0 4.25 M0 12.75 C0 9.55, 0 6.35, 0 4.25 M0 4.25 C0 1.42, 1.42 0, 4.25 0 M0 4.25 C0 1.42, 1.42 0, 4.25 0" stroke="#ffffff" stroke-width="1" fill="none"></path></g><g transform="translate(603.1300230435518 122.97944680403725) rotate(0 2.2193984985351562 3.375)"><text x="2.2193984985351562" y="0" font-family="Virgil, Segoe UI Emoji" font-size="5.4px" fill="#ffffff" text-anchor="middle" style="white-space: pre;" direction="ltr" dominant-baseline="text-before-edge">...</text></g><g stroke-linecap="round" transform="translate(595.2244215420869 136.60444680403725) rotate(0 10.125 8.5)"><path d="M4.25 0 C8.33 0, 12.41 0, 16 0 C18.83 0, 20.25 1.42, 20.25 4.25 C20.25 6.45, 20.25 8.64, 20.25 12.75 C20.25 15.58, 18.83 17, 16 17 C11.84 17, 7.69 17, 4.25 17 C1.42 17, 0 15.58, 0 12.75 C0 10.53, 0 8.31, 0 4.25 C0 1.42, 1.42 0, 4.25 0" stroke="none" stroke-width="0" fill="#1e1e1e"></path><path d="M4.25 0 C6.99 0, 9.74 0, 16 0 M4.25 0 C7.04 0, 9.83 0, 16 0 M16 0 C18.83 0, 20.25 1.42, 20.25 4.25 M16 0 C18.83 0, 20.25 1.42, 20.25 4.25 M20.25 4.25 C20.25 6.49, 20.25 8.73, 20.25 12.75 M20.25 4.25 C20.25 6.63, 20.25 9.02, 20.25 12.75 M20.25 12.75 C20.25 15.58, 18.83 17, 16 17 M20.25 12.75 C20.25 15.58, 18.83 17, 16 17 M16 17 C12.17 17, 8.34 17, 4.25 17 M16 17 C11.31 17, 6.63 17, 4.25 17 M4.25 17 C1.42 17, 0 15.58, 0 12.75 M4.25 17 C1.42 17, 0 15.58, 0 12.75 M0 12.75 C0 10.98, 0 9.21, 0 4.25 M0 12.75 C0 10.55, 0 8.35, 0 4.25 M0 4.25 C0 1.42, 1.42 0, 4.25 0 M0 4.25 C0 1.42, 1.42 0, 4.25 0" stroke="#ffffff" stroke-width="1" fill="none"></path></g><g transform="translate(603.1300230435518 141.72944680403725) rotate(0 2.2193984985351562 3.375)"><text x="2.2193984985351562" y="0" font-family="Virgil, Segoe UI Emoji" font-size="5.4px" fill="#ffffff" text-anchor="middle" style="white-space: pre;" direction="ltr" dominant-baseline="text-before-edge">...</text></g><g stroke-linecap="round" transform="translate(568.4744215420869 115.35444680403725) rotate(0 20 30)"><path d="M0 0 L40 0 L40 60 L0 60" stroke="none" stroke-width="0" fill="#ffffff"></path><path d="M0 0 C13.17 0, 26.34 0, 40 0 M0 0 C13.89 0, 27.78 0, 40 0 M40 0 C40 17.51, 40 35.03, 40 60 M40 0 C40 15.12, 40 30.24, 40 60 M40 60 C31.69 60, 23.37 60, 0 60 M40 60 C26.56 60, 13.11 60, 0 60 M0 60 C0 40.43, 0 20.87, 0 0 M0 60 C0 36.07, 0 12.15, 0 0" stroke="#1971c2" stroke-width="2" fill="none"></path></g><g stroke-linecap="round" transform="translate(608.4744215420869 115.47944680403725) rotate(0 16.875 30)"><path d="M8.44 0 C13.13 0, 17.83 0, 25.31 0 C30.94 0, 33.75 2.81, 33.75 8.44 C33.75 21.98, 33.75 35.52, 33.75 51.56 C33.75 57.19, 30.94 60, 25.31 60 C21.43 60, 17.54 60, 8.44 60 C2.81 60, 0 57.19, 0 51.56 C0 41.05, 0 30.54, 0 8.44 C0 2.81, 2.81 0, 8.44 0" stroke="none" stroke-width="0" fill="#1e1e1e"></path><path d="M8.44 0 C13.45 0, 18.46 0, 25.31 0 M25.31 0 C30.94 0, 33.75 2.81, 33.75 8.44 M33.75 8.44 C33.75 19.11, 33.75 29.77, 33.75 51.56 M33.75 51.56 C33.75 57.19, 30.94 60, 25.31 60 M25.31 60 C19.06 60, 12.81 60, 8.44 60 M8.44 60 C2.81 60, 0 57.19, 0 51.56 M0 51.56 C0 36.81, 0 22.05, 0 8.44 M0 8.44 C0 2.81, 2.81 0, 8.44 0" stroke="#ffffff" stroke-width="1.5" fill="none" stroke-dasharray="8 9"></path></g><g stroke-linecap="round" transform="translate(615.2244215420869 115.35444680403725) rotate(0 10.125 8.5)"><path d="M4.25 0 C8.23 0, 12.2 0, 16 0 C18.83 0, 20.25 1.42, 20.25 4.25 C20.25 6.36, 20.25 8.48, 20.25 12.75 C20.25 15.58, 18.83 17, 16 17 C12.82 17, 9.65 17, 4.25 17 C1.42 17, 0 15.58, 0 12.75 C0 10.52, 0 8.29, 0 4.25 C0 1.42, 1.42 0, 4.25 0" stroke="none" stroke-width="0" fill="#1e1e1e"></path><path d="M4.25 0 C7.96 0, 11.66 0, 16 0 M4.25 0 C7.2 0, 10.15 0, 16 0 M16 0 C18.83 0, 20.25 1.42, 20.25 4.25 M16 0 C18.83 0, 20.25 1.42, 20.25 4.25 M20.25 4.25 C20.25 6.57, 20.25 8.88, 20.25 12.75 M20.25 4.25 C20.25 7.05, 20.25 9.85, 20.25 12.75 M20.25 12.75 C20.25 15.58, 18.83 17, 16 17 M20.25 12.75 C20.25 15.58, 18.83 17, 16 17 M16 17 C13.2 17, 10.39 17, 4.25 17 M16 17 C12.13 17, 8.26 17, 4.25 17 M4.25 17 C1.42 17, 0 15.58, 0 12.75 M4.25 17 C1.42 17, 0 15.58, 0 12.75 M0 12.75 C0 10.81, 0 8.87, 0 4.25 M0 12.75 C0 9.47, 0 6.19, 0 4.25 M0 4.25 C0 1.42, 1.42 0, 4.25 0 M0 4.25 C0 1.42, 1.42 0, 4.25 0" stroke="#ffffff" stroke-width="1" fill="none"></path></g><g transform="translate(623.1300230435518 120.47944680403725) rotate(0 2.2193984985351562 3.375)"><text x="2.2193984985351562" y="0" font-family="Virgil, Segoe UI Emoji" font-size="5.4px" fill="#ffffff" text-anchor="middle" style="white-space: pre;" direction="ltr" dominant-baseline="text-before-edge">...</text></g><g stroke-linecap="round" transform="translate(615.2244215420869 137.85444680403725) rotate(0 10.125 8.5)"><path d="M4.25 0 C7.02 0, 9.8 0, 16 0 C18.83 0, 20.25 1.42, 20.25 4.25 C20.25 7.27, 20.25 10.28, 20.25 12.75 C20.25 15.58, 18.83 17, 16 17 C11.49 17, 6.99 17, 4.25 17 C1.42 17, 0 15.58, 0 12.75 C0 10.2, 0 7.66, 0 4.25 C0 1.42, 1.42 0, 4.25 0" stroke="none" stroke-width="0" fill="#1e1e1e"></path><path d="M4.25 0 C6.96 0, 9.68 0, 16 0 M4.25 0 C8.14 0, 12.03 0, 16 0 M16 0 C18.83 0, 20.25 1.42, 20.25 4.25 M16 0 C18.83 0, 20.25 1.42, 20.25 4.25 M20.25 4.25 C20.25 7.33, 20.25 10.4, 20.25 12.75 M20.25 4.25 C20.25 5.98, 20.25 7.71, 20.25 12.75 M20.25 12.75 C20.25 15.58, 18.83 17, 16 17 M20.25 12.75 C20.25 15.58, 18.83 17, 16 17 M16 17 C12.68 17, 9.36 17, 4.25 17 M16 17 C11.49 17, 6.98 17, 4.25 17 M4.25 17 C1.42 17, 0 15.58, 0 12.75 M4.25 17 C1.42 17, 0 15.58, 0 12.75 M0 12.75 C0 10.49, 0 8.22, 0 4.25 M0 12.75 C0 10.45, 0 8.15, 0 4.25 M0 4.25 C0 1.42, 1.42 0, 4.25 0 M0 4.25 C0 1.42, 1.42 0, 4.25 0" stroke="#ffffff" stroke-width="1" fill="none"></path></g><g transform="translate(623.1300230435518 142.97944680403725) rotate(0 2.2193984985351562 3.375)"><text x="2.2193984985351562" y="0" font-family="Virgil, Segoe UI Emoji" font-size="5.4px" fill="#ffffff" text-anchor="middle" style="white-space: pre;" direction="ltr" dominant-baseline="text-before-edge">...</text></g><g stroke-linecap="round" transform="translate(615.2244215420869 156.60444680403725) rotate(0 10.125 8.5)"><path d="M4.25 0 C8.66 0, 13.07 0, 16 0 C18.83 0, 20.25 1.42, 20.25 4.25 C20.25 7.52, 20.25 10.78, 20.25 12.75 C20.25 15.58, 18.83 17, 16 17 C12.67 17, 9.33 17, 4.25 17 C1.42 17, 0 15.58, 0 12.75 C0 10.15, 0 7.54, 0 4.25 C0 1.42, 1.42 0, 4.25 0" stroke="none" stroke-width="0" fill="#1e1e1e"></path><path d="M4.25 0 C6.63 0, 9 0, 16 0 M4.25 0 C7.94 0, 11.62 0, 16 0 M16 0 C18.83 0, 20.25 1.42, 20.25 4.25 M16 0 C18.83 0, 20.25 1.42, 20.25 4.25 M20.25 4.25 C20.25 6.02, 20.25 7.78, 20.25 12.75 M20.25 4.25 C20.25 7.11, 20.25 9.96, 20.25 12.75 M20.25 12.75 C20.25 15.58, 18.83 17, 16 17 M20.25 12.75 C20.25 15.58, 18.83 17, 16 17 M16 17 C11.31 17, 6.62 17, 4.25 17 M16 17 C13.57 17, 11.15 17, 4.25 17 M4.25 17 C1.42 17, 0 15.58, 0 12.75 M4.25 17 C1.42 17, 0 15.58, 0 12.75 M0 12.75 C0 10.99, 0 9.23, 0 4.25 M0 12.75 C0 9.85, 0 6.96, 0 4.25 M0 4.25 C0 1.42, 1.42 0, 4.25 0 M0 4.25 C0 1.42, 1.42 0, 4.25 0" stroke="#ffffff" stroke-width="1" fill="none"></path></g><g transform="translate(623.1300230435518 161.72944680403725) rotate(0 2.2193984985351562 3.375)"><text x="2.2193984985351562" y="0" font-family="Virgil, Segoe UI Emoji" font-size="5.4px" fill="#ffffff" text-anchor="middle" style="white-space: pre;" direction="ltr" dominant-baseline="text-before-edge">...</text></g><g stroke-linecap="round" transform="translate(581.344799739009 126.96455068780824) rotate(0 5.330825303414031 5.330825303414031)"><path d="M10.66 5.33 C10.66 5.64, 10.63 5.95, 10.58 6.26 C10.53 6.56, 10.45 6.86, 10.34 7.15 C10.23 7.44, 10.1 7.73, 9.95 8 C9.79 8.26, 9.61 8.52, 9.41 8.76 C9.22 8.99, 8.99 9.22, 8.76 9.41 C8.52 9.61, 8.26 9.79, 8 9.95 C7.73 10.1, 7.44 10.23, 7.15 10.34 C6.86 10.45, 6.56 10.53, 6.26 10.58 C5.95 10.63, 5.64 10.66, 5.33 10.66 C5.02 10.66, 4.71 10.63, 4.41 10.58 C4.1 10.53, 3.8 10.45, 3.51 10.34 C3.22 10.23, 2.93 10.1, 2.67 9.95 C2.4 9.79, 2.14 9.61, 1.9 9.41 C1.67 9.22, 1.45 8.99, 1.25 8.76 C1.05 8.52, 0.87 8.26, 0.71 8 C0.56 7.73, 0.43 7.44, 0.32 7.15 C0.22 6.86, 0.13 6.56, 0.08 6.26 C0.03 5.95, 0 5.64, 0 5.33 C0 5.02, 0.03 4.71, 0.08 4.41 C0.13 4.1, 0.22 3.8, 0.32 3.51 C0.43 3.22, 0.56 2.93, 0.71 2.67 C0.87 2.4, 1.05 2.14, 1.25 1.9 C1.45 1.67, 1.67 1.45, 1.9 1.25 C2.14 1.05, 2.4 0.87, 2.67 0.71 C2.93 0.56, 3.22 0.43, 3.51 0.32 C3.8 0.22, 4.1 0.13, 4.41 0.08 C4.71 0.03, 5.02 0, 5.33 0 C5.64 0, 5.95 0.03, 6.26 0.08 C6.56 0.13, 6.86 0.22, 7.15 0.32 C7.44 0.43, 7.73 0.56, 8 0.71 C8.26 0.87, 8.52 1.05, 8.76 1.25 C8.99 1.45, 9.22 1.67, 9.41 1.9 C9.61 2.14, 9.79 2.4, 9.95 2.67 C10.1 2.93, 10.23 3.22, 10.34 3.51 C10.45 3.8, 10.53 4.1, 10.58 4.41 C10.63 4.71, 10.65 5.18, 10.66 5.33 C10.68 5.49, 10.68 5.18, 10.66 5.33" stroke="none" stroke-width="0" fill="#1e1e1e"></path><path d="M10.66 5.33 C10.66 5.64, 10.63 5.95, 10.58 6.26 C10.53 6.56, 10.45 6.86, 10.34 7.15 C10.23 7.44, 10.1 7.73, 9.95 8 C9.79 8.26, 9.61 8.52, 9.41 8.76 C9.22 8.99, 8.99 9.22, 8.76 9.41 C8.52 9.61, 8.26 9.79, 8 9.95 C7.73 10.1, 7.44 10.23, 7.15 10.34 C6.86 10.45, 6.56 10.53, 6.26 10.58 C5.95 10.63, 5.64 10.66, 5.33 10.66 C5.02 10.66, 4.71 10.63, 4.41 10.58 C4.1 10.53, 3.8 10.45, 3.51 10.34 C3.22 10.23, 2.93 10.1, 2.67 9.95 C2.4 9.79, 2.14 9.61, 1.9 9.41 C1.67 9.22, 1.45 8.99, 1.25 8.76 C1.05 8.52, 0.87 8.26, 0.71 8 C0.56 7.73, 0.43 7.44, 0.32 7.15 C0.22 6.86, 0.13 6.56, 0.08 6.26 C0.03 5.95, 0 5.64, 0 5.33 C0 5.02, 0.03 4.71, 0.08 4.41 C0.13 4.1, 0.22 3.8, 0.32 3.51 C0.43 3.22, 0.56 2.93, 0.71 2.67 C0.87 2.4, 1.05 2.14, 1.25 1.9 C1.45 1.67, 1.67 1.45, 1.9 1.25 C2.14 1.05, 2.4 0.87, 2.67 0.71 C2.93 0.56, 3.22 0.43, 3.51 0.32 C3.8 0.22, 4.1 0.13, 4.41 0.08 C4.71 0.03, 5.02 0, 5.33 0 C5.64 0, 5.95 0.03, 6.26 0.08 C6.56 0.13, 6.86 0.22, 7.15 0.32 C7.44 0.43, 7.73 0.56, 8 0.71 C8.26 0.87, 8.52 1.05, 8.76 1.25 C8.99 1.45, 9.22 1.67, 9.41 1.9 C9.61 2.14, 9.79 2.4, 9.95 2.67 C10.1 2.93, 10.23 3.22, 10.34 3.51 C10.45 3.8, 10.53 4.1, 10.58 4.41 C10.63 4.71, 10.65 5.18, 10.66 5.33 C10.68 5.49, 10.68 5.18, 10.66 5.33" stroke="#1e1e1e" stroke-width="1" fill="none"></path></g><g stroke-linecap="round" transform="translate(585.6094599817402 135.4938711732707) rotate(0 1.0661650606828061 9.595485546145255)"><path d="M0.53 0 C0.81 0, 1.08 0, 1.6 0 C1.95 0, 2.13 0.18, 2.13 0.53 C2.13 6.95, 2.13 13.36, 2.13 18.66 C2.13 19.01, 1.95 19.19, 1.6 19.19 C1.32 19.19, 1.04 19.19, 0.53 19.19 C0.18 19.19, 0 19.01, 0 18.66 C0 14.44, 0 10.22, 0 0.53 C0 0.18, 0.18 0, 0.53 0" stroke="none" stroke-width="0" fill="#1e1e1e"></path><path d="M0.53 0 C0.8 0, 1.07 0, 1.6 0 M0.53 0 C0.93 0, 1.33 0, 1.6 0 M1.6 0 C1.95 0, 2.13 0.18, 2.13 0.53 M1.6 0 C1.95 0, 2.13 0.18, 2.13 0.53 M2.13 0.53 C2.13 6.5, 2.13 12.47, 2.13 18.66 M2.13 0.53 C2.13 5.75, 2.13 10.97, 2.13 18.66 M2.13 18.66 C2.13 19.01, 1.95 19.19, 1.6 19.19 M2.13 18.66 C2.13 19.01, 1.95 19.19, 1.6 19.19 M1.6 19.19 C1.25 19.19, 0.9 19.19, 0.53 19.19 M1.6 19.19 C1.3 19.19, 1 19.19, 0.53 19.19 M0.53 19.19 C0.18 19.19, 0 19.01, 0 18.66 M0.53 19.19 C0.18 19.19, 0 19.01, 0 18.66 M0 18.66 C0 11.67, 0 4.68, 0 0.53 M0 18.66 C0 12.96, 0 7.26, 0 0.53 M0 0.53 C0 0.18, 0.18 0, 0.53 0 M0 0.53 C0 0.18, 0.18 0, 0.53 0" stroke="#1e1e1e" stroke-width="1" fill="none"></path></g><g stroke-linecap="round" transform="translate(583.8558847188051 152.33058298617652) rotate(17.223572971059042 1.0661650606828061 6.396990364096837)"><path d="M0.53 0 C0.89 0, 1.25 0, 1.6 0 C1.95 0, 2.13 0.18, 2.13 0.53 C2.13 3.21, 2.13 5.89, 2.13 12.26 C2.13 12.62, 1.95 12.79, 1.6 12.79 C1.21 12.79, 0.81 12.79, 0.53 12.79 C0.18 12.79, 0 12.62, 0 12.26 C0 7.59, 0 2.91, 0 0.53 C0 0.18, 0.18 0, 0.53 0" stroke="none" stroke-width="0" fill="#1e1e1e"></path><path d="M0.53 0 C0.8 0, 1.06 0, 1.6 0 M0.53 0 C0.89 0, 1.24 0, 1.6 0 M1.6 0 C1.95 0, 2.13 0.18, 2.13 0.53 M1.6 0 C1.95 0, 2.13 0.18, 2.13 0.53 M2.13 0.53 C2.13 3.06, 2.13 5.59, 2.13 12.26 M2.13 0.53 C2.13 4.07, 2.13 7.62, 2.13 12.26 M2.13 12.26 C2.13 12.62, 1.95 12.79, 1.6 12.79 M2.13 12.26 C2.13 12.62, 1.95 12.79, 1.6 12.79 M1.6 12.79 C1.31 12.79, 1.01 12.79, 0.53 12.79 M1.6 12.79 C1.17 12.79, 0.75 12.79, 0.53 12.79 M0.53 12.79 C0.18 12.79, 0 12.62, 0 12.26 M0.53 12.79 C0.18 12.79, 0 12.62, 0 12.26 M0 12.26 C0 9.27, 0 6.27, 0 0.53 M0 12.26 C0 8.31, 0 4.36, 0 0.53 M0 0.53 C0 0.18, 0.18 0, 0.53 0 M0 0.53 C0 0.18, 0.18 0, 0.53 0" stroke="#1e1e1e" stroke-width="1" fill="none"></path></g><g stroke-linecap="round" transform="translate(589.7413113928692 151.50973533941033) rotate(316.1871816958093 1.0661650606828061 6.396990364096837)"><path d="M0.53 0 C0.82 0, 1.11 0, 1.6 0 C1.95 0, 2.13 0.18, 2.13 0.53 C2.13 4.87, 2.13 9.21, 2.13 12.26 C2.13 12.62, 1.95 12.79, 1.6 12.79 C1.35 12.79, 1.1 12.79, 0.53 12.79 C0.18 12.79, 0 12.62, 0 12.26 C0 9.55, 0 6.84, 0 0.53 C0 0.18, 0.18 0, 0.53 0" stroke="none" stroke-width="0" fill="#1e1e1e"></path><path d="M0.53 0 C0.89 0, 1.24 0, 1.6 0 M0.53 0 C0.93 0, 1.33 0, 1.6 0 M1.6 0 C1.95 0, 2.13 0.18, 2.13 0.53 M1.6 0 C1.95 0, 2.13 0.18, 2.13 0.53 M2.13 0.53 C2.13 2.92, 2.13 5.31, 2.13 12.26 M2.13 0.53 C2.13 4.6, 2.13 8.67, 2.13 12.26 M2.13 12.26 C2.13 12.62, 1.95 12.79, 1.6 12.79 M2.13 12.26 C2.13 12.62, 1.95 12.79, 1.6 12.79 M1.6 12.79 C1.19 12.79, 0.78 12.79, 0.53 12.79 M1.6 12.79 C1.29 12.79, 0.98 12.79, 0.53 12.79 M0.53 12.79 C0.18 12.79, 0 12.62, 0 12.26 M0.53 12.79 C0.18 12.79, 0 12.62, 0 12.26 M0 12.26 C0 9.09, 0 5.91, 0 0.53 M0 12.26 C0 9.74, 0 7.22, 0 0.53 M0 0.53 C0 0.18, 0.18 0, 0.53 0 M0 0.53 C0 0.18, 0.18 0, 0.53 0" stroke="#1e1e1e" stroke-width="1" fill="none"></path></g><g stroke-linecap="round" transform="translate(587.5194683929753 141.89646775011397) rotate(335.188021271438 1.0661650606828061 4.786048645123628)"><path d="M0.53 0 C0.88 0, 1.22 0, 1.6 0 C1.95 0, 2.13 0.18, 2.13 0.53 C2.13 2.87, 2.13 5.21, 2.13 9.04 C2.13 9.39, 1.95 9.57, 1.6 9.57 C1.31 9.57, 1.01 9.57, 0.53 9.57 C0.18 9.57, 0 9.39, 0 9.04 C0 7, 0 4.97, 0 0.53 C0 0.18, 0.18 0, 0.53 0" stroke="none" stroke-width="0" fill="#1e1e1e"></path><path d="M0.53 0 C0.8 0, 1.06 0, 1.6 0 M0.53 0 C0.81 0, 1.1 0, 1.6 0 M1.6 0 C1.95 0, 2.13 0.18, 2.13 0.53 M1.6 0 C1.95 0, 2.13 0.18, 2.13 0.53 M2.13 0.53 C2.13 3.44, 2.13 6.35, 2.13 9.04 M2.13 0.53 C2.13 3.63, 2.13 6.73, 2.13 9.04 M2.13 9.04 C2.13 9.39, 1.95 9.57, 1.6 9.57 M2.13 9.04 C2.13 9.39, 1.95 9.57, 1.6 9.57 M1.6 9.57 C1.26 9.57, 0.93 9.57, 0.53 9.57 M1.6 9.57 C1.22 9.57, 0.84 9.57, 0.53 9.57 M0.53 9.57 C0.18 9.57, 0 9.39, 0 9.04 M0.53 9.57 C0.18 9.57, 0 9.39, 0 9.04 M0 9.04 C0 6.97, 0 4.89, 0 0.53 M0 9.04 C0 7.18, 0 5.32, 0 0.53 M0 0.53 C0 0.18, 0.18 0, 0.53 0 M0 0.53 C0 0.18, 0.18 0, 0.53 0" stroke="#1e1e1e" stroke-width="1" fill="none"></path></g><g stroke-linecap="round" transform="translate(582.6253514811592 140.81262420803796) rotate(53.430113843296084 1.0661650606828061 4.786048645123628)"><path d="M0.53 0 C0.8 0, 1.06 0, 1.6 0 C1.95 0, 2.13 0.18, 2.13 0.53 C2.13 2.83, 2.13 5.13, 2.13 9.04 C2.13 9.39, 1.95 9.57, 1.6 9.57 C1.32 9.57, 1.04 9.57, 0.53 9.57 C0.18 9.57, 0 9.39, 0 9.04 C0 6.05, 0 3.06, 0 0.53 C0 0.18, 0.18 0, 0.53 0" stroke="none" stroke-width="0" fill="#1e1e1e"></path><path d="M0.53 0 C0.87 0, 1.2 0, 1.6 0 M0.53 0 C0.81 0, 1.09 0, 1.6 0 M1.6 0 C1.95 0, 2.13 0.18, 2.13 0.53 M1.6 0 C1.95 0, 2.13 0.18, 2.13 0.53 M2.13 0.53 C2.13 3.39, 2.13 6.25, 2.13 9.04 M2.13 0.53 C2.13 3.31, 2.13 6.08, 2.13 9.04 M2.13 9.04 C2.13 9.39, 1.95 9.57, 1.6 9.57 M2.13 9.04 C2.13 9.39, 1.95 9.57, 1.6 9.57 M1.6 9.57 C1.38 9.57, 1.16 9.57, 0.53 9.57 M1.6 9.57 C1.38 9.57, 1.16 9.57, 0.53 9.57 M0.53 9.57 C0.18 9.57, 0 9.39, 0 9.04 M0.53 9.57 C0.18 9.57, 0 9.39, 0 9.04 M0 9.04 C0 6.14, 0 3.24, 0 0.53 M0 9.04 C0 6.08, 0 3.13, 0 0.53 M0 0.53 C0 0.18, 0.18 0, 0.53 0 M0 0.53 C0 0.18, 0.18 0, 0.53 0" stroke="#1e1e1e" stroke-width="1" fill="none"></path></g><g stroke-linecap="round" transform="translate(588.4744215420869 135.35444680403725) rotate(0 20 30)"><path d="M0 0 L40 0 L40 60 L0 60" stroke="none" stroke-width="0" fill="#ffffff"></path><path d="M0 0 C11.68 0, 23.35 0, 40 0 M0 0 C10.08 0, 20.16 0, 40 0 M40 0 C40 12.47, 40 24.94, 40 60 M40 0 C40 20.17, 40 40.33, 40 60 M40 60 C26.96 60, 13.91 60, 0 60 M40 60 C24.05 60, 8.1 60, 0 60 M0 60 C0 41.16, 0 22.32, 0 0 M0 60 C0 38.76, 0 17.52, 0 0" stroke="#1971c2" stroke-width="2" fill="none"></path></g><g stroke-linecap="round" transform="translate(602.4862117404564 147.9046159082891) rotate(0 5.330825303414031 5.330825303414031)"><path d="M10.66 5.33 C10.66 5.64, 10.63 5.95, 10.58 6.26 C10.53 6.56, 10.45 6.86, 10.34 7.15 C10.23 7.44, 10.1 7.73, 9.95 8 C9.79 8.26, 9.61 8.52, 9.41 8.76 C9.22 8.99, 8.99 9.22, 8.76 9.41 C8.52 9.61, 8.26 9.79, 8 9.95 C7.73 10.1, 7.44 10.23, 7.15 10.34 C6.86 10.45, 6.56 10.53, 6.26 10.58 C5.95 10.63, 5.64 10.66, 5.33 10.66 C5.02 10.66, 4.71 10.63, 4.41 10.58 C4.1 10.53, 3.8 10.45, 3.51 10.34 C3.22 10.23, 2.93 10.1, 2.67 9.95 C2.4 9.79, 2.14 9.61, 1.9 9.41 C1.67 9.22, 1.45 8.99, 1.25 8.76 C1.05 8.52, 0.87 8.26, 0.71 8 C0.56 7.73, 0.43 7.44, 0.32 7.15 C0.22 6.86, 0.13 6.56, 0.08 6.26 C0.03 5.95, 0 5.64, 0 5.33 C0 5.02, 0.03 4.71, 0.08 4.41 C0.13 4.1, 0.22 3.8, 0.32 3.51 C0.43 3.22, 0.56 2.93, 0.71 2.67 C0.87 2.4, 1.05 2.14, 1.25 1.9 C1.45 1.67, 1.67 1.45, 1.9 1.25 C2.14 1.05, 2.4 0.87, 2.67 0.71 C2.93 0.56, 3.22 0.43, 3.51 0.32 C3.8 0.22, 4.1 0.13, 4.41 0.08 C4.71 0.03, 5.02 0, 5.33 0 C5.64 0, 5.95 0.03, 6.26 0.08 C6.56 0.13, 6.86 0.22, 7.15 0.32 C7.44 0.43, 7.73 0.56, 8 0.71 C8.26 0.87, 8.52 1.05, 8.76 1.25 C8.99 1.45, 9.22 1.67, 9.41 1.9 C9.61 2.14, 9.79 2.4, 9.95 2.67 C10.1 2.93, 10.23 3.22, 10.34 3.51 C10.45 3.8, 10.53 4.1, 10.58 4.41 C10.63 4.71, 10.65 5.18, 10.66 5.33 C10.68 5.49, 10.68 5.18, 10.66 5.33" stroke="none" stroke-width="0" fill="#1e1e1e"></path><path d="M10.66 5.33 C10.66 5.64, 10.63 5.95, 10.58 6.26 C10.53 6.56, 10.45 6.86, 10.34 7.15 C10.23 7.44, 10.1 7.73, 9.95 8 C9.79 8.26, 9.61 8.52, 9.41 8.76 C9.22 8.99, 8.99 9.22, 8.76 9.41 C8.52 9.61, 8.26 9.79, 8 9.95 C7.73 10.1, 7.44 10.23, 7.15 10.34 C6.86 10.45, 6.56 10.53, 6.26 10.58 C5.95 10.63, 5.64 10.66, 5.33 10.66 C5.02 10.66, 4.71 10.63, 4.41 10.58 C4.1 10.53, 3.8 10.45, 3.51 10.34 C3.22 10.23, 2.93 10.1, 2.67 9.95 C2.4 9.79, 2.14 9.61, 1.9 9.41 C1.67 9.22, 1.45 8.99, 1.25 8.76 C1.05 8.52, 0.87 8.26, 0.71 8 C0.56 7.73, 0.43 7.44, 0.32 7.15 C0.22 6.86, 0.13 6.56, 0.08 6.26 C0.03 5.95, 0 5.64, 0 5.33 C0 5.02, 0.03 4.71, 0.08 4.41 C0.13 4.1, 0.22 3.8, 0.32 3.51 C0.43 3.22, 0.56 2.93, 0.71 2.67 C0.87 2.4, 1.05 2.14, 1.25 1.9 C1.45 1.67, 1.67 1.45, 1.9 1.25 C2.14 1.05, 2.4 0.87, 2.67 0.71 C2.93 0.56, 3.22 0.43, 3.51 0.32 C3.8 0.22, 4.1 0.13, 4.41 0.08 C4.71 0.03, 5.02 0, 5.33 0 C5.64 0, 5.95 0.03, 6.26 0.08 C6.56 0.13, 6.86 0.22, 7.15 0.32 C7.44 0.43, 7.73 0.56, 8 0.71 C8.26 0.87, 8.52 1.05, 8.76 1.25 C8.99 1.45, 9.22 1.67, 9.41 1.9 C9.61 2.14, 9.79 2.4, 9.95 2.67 C10.1 2.93, 10.23 3.22, 10.34 3.51 C10.45 3.8, 10.53 4.1, 10.58 4.41 C10.63 4.71, 10.65 5.18, 10.66 5.33 C10.68 5.49, 10.68 5.18, 10.66 5.33" stroke="#1e1e1e" stroke-width="1" fill="none"></path></g><g stroke-linecap="round" transform="translate(606.7508719831876 156.43393639375154) rotate(0 1.0661650606828061 9.595485546145255)"><path d="M0.53 0 C0.85 0, 1.18 0, 1.6 0 C1.95 0, 2.13 0.18, 2.13 0.53 C2.13 7.39, 2.13 14.26, 2.13 18.66 C2.13 19.01, 1.95 19.19, 1.6 19.19 C1.27 19.19, 0.94 19.19, 0.53 19.19 C0.18 19.19, 0 19.01, 0 18.66 C0 12.01, 0 5.36, 0 0.53 C0 0.18, 0.18 0, 0.53 0" stroke="none" stroke-width="0" fill="#1e1e1e"></path><path d="M0.53 0 C0.93 0, 1.33 0, 1.6 0 M0.53 0 C0.93 0, 1.32 0, 1.6 0 M1.6 0 C1.95 0, 2.13 0.18, 2.13 0.53 M1.6 0 C1.95 0, 2.13 0.18, 2.13 0.53 M2.13 0.53 C2.13 5.75, 2.13 10.97, 2.13 18.66 M2.13 0.53 C2.13 5.58, 2.13 10.62, 2.13 18.66 M2.13 18.66 C2.13 19.01, 1.95 19.19, 1.6 19.19 M2.13 18.66 C2.13 19.01, 1.95 19.19, 1.6 19.19 M1.6 19.19 C1.3 19.19, 1 19.19, 0.53 19.19 M1.6 19.19 C1.35 19.19, 1.11 19.19, 0.53 19.19 M0.53 19.19 C0.18 19.19, 0 19.01, 0 18.66 M0.53 19.19 C0.18 19.19, 0 19.01, 0 18.66 M0 18.66 C0 12.96, 0 7.26, 0 0.53 M0 18.66 C0 12.78, 0 6.89, 0 0.53 M0 0.53 C0 0.18, 0.18 0, 0.53 0 M0 0.53 C0 0.18, 0.18 0, 0.53 0" stroke="#1e1e1e" stroke-width="1" fill="none"></path></g><g stroke-linecap="round" transform="translate(604.9972967202525 173.27064820665737) rotate(17.223572971059042 1.0661650606828061 6.396990364096837)"><path d="M0.53 0 C0.94 0, 1.35 0, 1.6 0 C1.95 0, 2.13 0.18, 2.13 0.53 C2.13 3.86, 2.13 7.19, 2.13 12.26 C2.13 12.62, 1.95 12.79, 1.6 12.79 C1.27 12.79, 0.95 12.79, 0.53 12.79 C0.18 12.79, 0 12.62, 0 12.26 C0 7.93, 0 3.6, 0 0.53 C0 0.18, 0.18 0, 0.53 0" stroke="none" stroke-width="0" fill="#1e1e1e"></path><path d="M0.53 0 C0.89 0, 1.24 0, 1.6 0 M0.53 0 C0.82 0, 1.11 0, 1.6 0 M1.6 0 C1.95 0, 2.13 0.18, 2.13 0.53 M1.6 0 C1.95 0, 2.13 0.18, 2.13 0.53 M2.13 0.53 C2.13 4.07, 2.13 7.62, 2.13 12.26 M2.13 0.53 C2.13 3.33, 2.13 6.13, 2.13 12.26 M2.13 12.26 C2.13 12.62, 1.95 12.79, 1.6 12.79 M2.13 12.26 C2.13 12.62, 1.95 12.79, 1.6 12.79 M1.6 12.79 C1.17 12.79, 0.75 12.79, 0.53 12.79 M1.6 12.79 C1.36 12.79, 1.11 12.79, 0.53 12.79 M0.53 12.79 C0.18 12.79, 0 12.62, 0 12.26 M0.53 12.79 C0.18 12.79, 0 12.62, 0 12.26 M0 12.26 C0 8.31, 0 4.36, 0 0.53 M0 12.26 C0 8.29, 0 4.33, 0 0.53 M0 0.53 C0 0.18, 0.18 0, 0.53 0 M0 0.53 C0 0.18, 0.18 0, 0.53 0" stroke="#1e1e1e" stroke-width="1" fill="none"></path></g><g stroke-linecap="round" transform="translate(610.8827233943166 172.44980055989117) rotate(316.1871816958093 1.0661650606828061 6.396990364096837)"><path d="M0.53 0 C0.88 0, 1.23 0, 1.6 0 C1.95 0, 2.13 0.18, 2.13 0.53 C2.13 3.56, 2.13 6.59, 2.13 12.26 C2.13 12.62, 1.95 12.79, 1.6 12.79 C1.21 12.79, 0.83 12.79, 0.53 12.79 C0.18 12.79, 0 12.62, 0 12.26 C0 7.95, 0 3.64, 0 0.53 C0 0.18, 0.18 0, 0.53 0" stroke="none" stroke-width="0" fill="#1e1e1e"></path><path d="M0.53 0 C0.93 0, 1.33 0, 1.6 0 M0.53 0 C0.9 0, 1.26 0, 1.6 0 M1.6 0 C1.95 0, 2.13 0.18, 2.13 0.53 M1.6 0 C1.95 0, 2.13 0.18, 2.13 0.53 M2.13 0.53 C2.13 4.6, 2.13 8.67, 2.13 12.26 M2.13 0.53 C2.13 3.24, 2.13 5.95, 2.13 12.26 M2.13 12.26 C2.13 12.62, 1.95 12.79, 1.6 12.79 M2.13 12.26 C2.13 12.62, 1.95 12.79, 1.6 12.79 M1.6 12.79 C1.29 12.79, 0.98 12.79, 0.53 12.79 M1.6 12.79 C1.2 12.79, 0.8 12.79, 0.53 12.79 M0.53 12.79 C0.18 12.79, 0 12.62, 0 12.26 M0.53 12.79 C0.18 12.79, 0 12.62, 0 12.26 M0 12.26 C0 9.74, 0 7.22, 0 0.53 M0 12.26 C0 8.58, 0 4.9, 0 0.53 M0 0.53 C0 0.18, 0.18 0, 0.53 0 M0 0.53 C0 0.18, 0.18 0, 0.53 0" stroke="#1e1e1e" stroke-width="1" fill="none"></path></g><g stroke-linecap="round" transform="translate(608.6608803944227 162.83653297059482) rotate(335.188021271438 1.0661650606828061 4.786048645123628)"><path d="M0.53 0 C0.84 0, 1.16 0, 1.6 0 C1.95 0, 2.13 0.18, 2.13 0.53 C2.13 3.15, 2.13 5.76, 2.13 9.04 C2.13 9.39, 1.95 9.57, 1.6 9.57 C1.3 9.57, 1 9.57, 0.53 9.57 C0.18 9.57, 0 9.39, 0 9.04 C0 6.22, 0 3.4, 0 0.53 C0 0.18, 0.18 0, 0.53 0" stroke="none" stroke-width="0" fill="#1e1e1e"></path><path d="M0.53 0 C0.81 0, 1.1 0, 1.6 0 M0.53 0 C0.92 0, 1.3 0, 1.6 0 M1.6 0 C1.95 0, 2.13 0.18, 2.13 0.53 M1.6 0 C1.95 0, 2.13 0.18, 2.13 0.53 M2.13 0.53 C2.13 3.63, 2.13 6.73, 2.13 9.04 M2.13 0.53 C2.13 2.93, 2.13 5.34, 2.13 9.04 M2.13 9.04 C2.13 9.39, 1.95 9.57, 1.6 9.57 M2.13 9.04 C2.13 9.39, 1.95 9.57, 1.6 9.57 M1.6 9.57 C1.22 9.57, 0.84 9.57, 0.53 9.57 M1.6 9.57 C1.32 9.57, 1.03 9.57, 0.53 9.57 M0.53 9.57 C0.18 9.57, 0 9.39, 0 9.04 M0.53 9.57 C0.18 9.57, 0 9.39, 0 9.04 M0 9.04 C0 7.18, 0 5.32, 0 0.53 M0 9.04 C0 7.03, 0 5.02, 0 0.53 M0 0.53 C0 0.18, 0.18 0, 0.53 0 M0 0.53 C0 0.18, 0.18 0, 0.53 0" stroke="#1e1e1e" stroke-width="1" fill="none"></path></g><g stroke-linecap="round" transform="translate(603.7667634826066 161.7526894285188) rotate(53.430113843296084 1.0661650606828061 4.786048645123628)"><path d="M0.53 0 C0.91 0, 1.29 0, 1.6 0 C1.95 0, 2.13 0.18, 2.13 0.53 C2.13 2.75, 2.13 4.97, 2.13 9.04 C2.13 9.39, 1.95 9.57, 1.6 9.57 C1.35 9.57, 1.1 9.57, 0.53 9.57 C0.18 9.57, 0 9.39, 0 9.04 C0 6.58, 0 4.12, 0 0.53 C0 0.18, 0.18 0, 0.53 0" stroke="none" stroke-width="0" fill="#1e1e1e"></path><path d="M0.53 0 C0.81 0, 1.09 0, 1.6 0 M0.53 0 C0.83 0, 1.13 0, 1.6 0 M1.6 0 C1.95 0, 2.13 0.18, 2.13 0.53 M1.6 0 C1.95 0, 2.13 0.18, 2.13 0.53 M2.13 0.53 C2.13 3.31, 2.13 6.08, 2.13 9.04 M2.13 0.53 C2.13 3.93, 2.13 7.32, 2.13 9.04 M2.13 9.04 C2.13 9.39, 1.95 9.57, 1.6 9.57 M2.13 9.04 C2.13 9.39, 1.95 9.57, 1.6 9.57 M1.6 9.57 C1.38 9.57, 1.16 9.57, 0.53 9.57 M1.6 9.57 C1.32 9.57, 1.05 9.57, 0.53 9.57 M0.53 9.57 C0.18 9.57, 0 9.39, 0 9.04 M0.53 9.57 C0.18 9.57, 0 9.39, 0 9.04 M0 9.04 C0 6.08, 0 3.13, 0 0.53 M0 9.04 C0 6.63, 0 4.23, 0 0.53 M0 0.53 C0 0.18, 0.18 0, 0.53 0 M0 0.53 C0 0.18, 0.18 0, 0.53 0" stroke="#1e1e1e" stroke-width="1" fill="none"></path></g></svg>